solid OpenSCAD_Model
  facet normal -1 0 0
    outer loop
      vertex 0 10 12
      vertex 0 50 0
      vertex 0 10 0
    endloop
  endfacet
  facet normal -1 0 0
    outer loop
      vertex 0 10 12
      vertex 0 50 12
      vertex 0 50 0
    endloop
  endfacet
  facet normal 0 -1 0
    outer loop
      vertex -20 0 0
      vertex -23 0 10
      vertex -23 0 0
    endloop
  endfacet
  facet normal 0 -1 0
    outer loop
      vertex -20 0 0
      vertex -20 0 10
      vertex -23 0 10
    endloop
  endfacet
  facet normal 0 -1 0
    outer loop
      vertex 10 0 0
      vertex 2 0 2
      vertex 2 0 0
    endloop
  endfacet
  facet normal 0 -1 0
    outer loop
      vertex 10 0 0
      vertex 10 0 2
      vertex 2 0 2
    endloop
  endfacet
  facet normal 0 0 -1
    outer loop
      vertex -23 10 0
      vertex -20 0 0
      vertex -23 0 0
    endloop
  endfacet
  facet normal 0 0 -1
    outer loop
      vertex -23 10 0
      vertex 0 10 0
      vertex -20 0 0
    endloop
  endfacet
  facet normal 0 0 -1
    outer loop
      vertex 0 50 0
      vertex 10 50 0
      vertex 0 10 0
    endloop
  endfacet
  facet normal 0 -0 -1
    outer loop
      vertex 10 50 0
      vertex 10 0 0
      vertex 0 10 0
    endloop
  endfacet
  facet normal 0 0 -1
    outer loop
      vertex 10 0 0
      vertex 2 0 0
      vertex 0 10 0
    endloop
  endfacet
  facet normal 0 0 -1
    outer loop
      vertex 2 0 0
      vertex -20 0 0
      vertex 0 10 0
    endloop
  endfacet
  facet normal 0 0 -1
    outer loop
      vertex 2 -2 0
      vertex -20 0 0
      vertex 2 0 0
    endloop
  endfacet
  facet normal 0 0 -1
    outer loop
      vertex -20 -2 0
      vertex -20 0 0
      vertex 2 -2 0
    endloop
  endfacet
  facet normal 0 1 0
    outer loop
      vertex 10 50 12
      vertex 10 50 0
      vertex 8 50 2
    endloop
  endfacet
  facet normal 0 1 0
    outer loop
      vertex 0 50 12
      vertex 2 50 2
      vertex 0 50 0
    endloop
  endfacet
  facet normal 0 1 0
    outer loop
      vertex 2 50 12
      vertex 2 50 2
      vertex 0 50 12
    endloop
  endfacet
  facet normal 0 1 0
    outer loop
      vertex 8 50 2
      vertex 10 50 0
      vertex 0 50 0
    endloop
  endfacet
  facet normal 0 1 0
    outer loop
      vertex 8 50 2
      vertex 0 50 0
      vertex 2 50 2
    endloop
  endfacet
  facet normal -0 1 0
    outer loop
      vertex 8 50 12
      vertex 10 50 12
      vertex 8 50 2
    endloop
  endfacet
  facet normal 0 0 1
    outer loop
      vertex 2 2 2
      vertex -23 8 2
      vertex -23 2 2
    endloop
  endfacet
  facet normal 0 0 1
    outer loop
      vertex 2 2 2
      vertex 2 0 2
      vertex 10 0 2
    endloop
  endfacet
  facet normal -0 0 1
    outer loop
      vertex 2 2 2
      vertex 10 0 2
      vertex 8 5 2
    endloop
  endfacet
  facet normal 0 -0 1
    outer loop
      vertex 10 0 2
      vertex 10 5 2
      vertex 8 5 2
    endloop
  endfacet
  facet normal 0 -0 1
    outer loop
      vertex 2 2 2
      vertex 2 8 2
      vertex -23 8 2
    endloop
  endfacet
  facet normal 0 0 1
    outer loop
      vertex 8 50 2
      vertex 2 50 2
      vertex 2 8 2
    endloop
  endfacet
  facet normal 0 0 1
    outer loop
      vertex 8 5 2
      vertex 2 8 2
      vertex 2 2 2
    endloop
  endfacet
  facet normal -0 0 1
    outer loop
      vertex 2 8 2
      vertex 8 5 2
      vertex 8 50 2
    endloop
  endfacet
  facet normal 1 0 0
    outer loop
      vertex 10 50 12
      vertex 10 5 12
      vertex 10 5 2
    endloop
  endfacet
  facet normal 1 0 0
    outer loop
      vertex 10 50 12
      vertex 10 5 2
      vertex 10 50 0
    endloop
  endfacet
  facet normal 1 0 0
    outer loop
      vertex 10 50 0
      vertex 10 5 2
      vertex 10 0 0
    endloop
  endfacet
  facet normal 1 0 0
    outer loop
      vertex 10 5 2
      vertex 10 0 2
      vertex 10 0 0
    endloop
  endfacet
  facet normal -1 0 -0
    outer loop
      vertex -23 10 12
      vertex -23 10 0
      vertex -23 8 2
    endloop
  endfacet
  facet normal -1 0 0
    outer loop
      vertex -23 0 10
      vertex -23 2 2
      vertex -23 0 0
    endloop
  endfacet
  facet normal -1 -0 -0
    outer loop
      vertex -23 2 10
      vertex -23 2 2
      vertex -23 0 10
    endloop
  endfacet
  facet normal -1 0 -0
    outer loop
      vertex -23 8 2
      vertex -23 10 0
      vertex -23 0 0
    endloop
  endfacet
  facet normal -1 -0 0
    outer loop
      vertex -23 8 2
      vertex -23 0 0
      vertex -23 2 2
    endloop
  endfacet
  facet normal -1 0 0
    outer loop
      vertex -23 8 12
      vertex -23 10 12
      vertex -23 8 2
    endloop
  endfacet
  facet normal 0 1 0
    outer loop
      vertex -23 10 12
      vertex 0 10 0
      vertex -23 10 0
    endloop
  endfacet
  facet normal -0 1 0
    outer loop
      vertex -23 10 12
      vertex 0 10 12
      vertex 0 10 0
    endloop
  endfacet
  facet normal -1 0 0
    outer loop
      vertex 8 5 12
      vertex 8 50 2
      vertex 8 5 2
    endloop
  endfacet
  facet normal -1 0 0
    outer loop
      vertex 8 5 12
      vertex 8 50 12
      vertex 8 50 2
    endloop
  endfacet
  facet normal 0 -1 0
    outer loop
      vertex 10 5 2
      vertex 8 5 12
      vertex 8 5 2
    endloop
  endfacet
  facet normal 0 -1 0
    outer loop
      vertex 10 5 2
      vertex 10 5 12
      vertex 8 5 12
    endloop
  endfacet
  facet normal 0 0 1
    outer loop
      vertex 10 5 12
      vertex 8 50 12
      vertex 8 5 12
    endloop
  endfacet
  facet normal 0 -0 1
    outer loop
      vertex 10 5 12
      vertex 10 50 12
      vertex 8 50 12
    endloop
  endfacet
  facet normal 0 -1 0
    outer loop
      vertex 2 8 2
      vertex -23 8 12
      vertex -23 8 2
    endloop
  endfacet
  facet normal 0 -1 0
    outer loop
      vertex 2 8 2
      vertex 2 8 12
      vertex -23 8 12
    endloop
  endfacet
  facet normal 0 0 1
    outer loop
      vertex 0 10 12
      vertex -23 10 12
      vertex -23 8 12
    endloop
  endfacet
  facet normal 0 0 1
    outer loop
      vertex 2 50 12
      vertex 0 50 12
      vertex 0 10 12
    endloop
  endfacet
  facet normal 0 0 1
    outer loop
      vertex 2 50 12
      vertex 0 10 12
      vertex 2 8 12
    endloop
  endfacet
  facet normal 0 0 1
    outer loop
      vertex 2 8 12
      vertex 0 10 12
      vertex -23 8 12
    endloop
  endfacet
  facet normal 1 0 0
    outer loop
      vertex 2 50 2
      vertex 2 8 12
      vertex 2 8 2
    endloop
  endfacet
  facet normal 1 0 -0
    outer loop
      vertex 2 50 2
      vertex 2 50 12
      vertex 2 8 12
    endloop
  endfacet
  facet normal 0 1 0
    outer loop
      vertex -20 2 10
      vertex 2 2 2
      vertex -23 2 2
    endloop
  endfacet
  facet normal -0 1 0
    outer loop
      vertex -23 2 10
      vertex -20 2 10
      vertex -23 2 2
    endloop
  endfacet
  facet normal 0 1 0
    outer loop
      vertex -20 2 80
      vertex -15.3607 2 71.7958
      vertex -20 2 10
    endloop
  endfacet
  facet normal 0 1 0
    outer loop
      vertex -15.65 2 73.25
      vertex -15.577 2 72.5087
      vertex -20 2 80
    endloop
  endfacet
  facet normal 0 1 0
    outer loop
      vertex -15.3607 2 71.7958
      vertex -20 2 80
      vertex -15.577 2 72.5087
    endloop
  endfacet
  facet normal 0 1 0
    outer loop
      vertex -15.0096 2 71.1388
      vertex -20 2 10
      vertex -15.3607 2 71.7958
    endloop
  endfacet
  facet normal 0 1 -0
    outer loop
      vertex -9.3 2 25
      vertex -20 2 10
      vertex -9.22698 2 25.7413
    endloop
  endfacet
  facet normal 0 1 0
    outer loop
      vertex -20 2 10
      vertex -15.0096 2 71.1388
      vertex -9.01074 2 26.4542
    endloop
  endfacet
  facet normal 0 1 0
    outer loop
      vertex -15.0096 2 71.1388
      vertex -14.537 2 70.563
      vertex -9.01074 2 26.4542
    endloop
  endfacet
  facet normal 0 1 0
    outer loop
      vertex -14.537 2 70.563
      vertex -13.9612 2 70.0904
      vertex -8.65958 2 27.1112
    endloop
  endfacet
  facet normal 0 1 0
    outer loop
      vertex -13.9612 2 70.0904
      vertex -13.3042 2 69.7393
      vertex -8.18701 2 27.687
    endloop
  endfacet
  facet normal 0 1 0
    outer loop
      vertex -13.3042 2 69.7393
      vertex -12.5913 2 69.523
      vertex -7.61117 2 28.1596
    endloop
  endfacet
  facet normal 0 1 0
    outer loop
      vertex -12.5913 2 69.523
      vertex -11.85 2 69.45
      vertex -6.9542 2 28.5107
    endloop
  endfacet
  facet normal 0 1 0
    outer loop
      vertex 2 2 80
      vertex -8.69042 2 71.1388
      vertex -8.33926 2 71.7958
    endloop
  endfacet
  facet normal 0 1 0
    outer loop
      vertex 2 2 80
      vertex -8.33926 2 71.7958
      vertex -8.12302 2 72.5087
    endloop
  endfacet
  facet normal 0 1 0
    outer loop
      vertex 2 2 80
      vertex -8.12302 2 72.5087
      vertex -8.05 2 73.25
    endloop
  endfacet
  facet normal 0 1 0
    outer loop
      vertex 2 2 80
      vertex -8.05 2 73.25
      vertex -8.12302 2 73.9913
    endloop
  endfacet
  facet normal 0 1 0
    outer loop
      vertex 2 2 80
      vertex -8.12302 2 73.9913
      vertex -8.33926 2 74.7042
    endloop
  endfacet
  facet normal 0 1 0
    outer loop
      vertex 2 2 80
      vertex -8.33926 2 74.7042
      vertex -8.69042 2 75.3612
    endloop
  endfacet
  facet normal 0 1 0
    outer loop
      vertex 2 2 80
      vertex -8.69042 2 75.3612
      vertex -9.16299 2 75.937
    endloop
  endfacet
  facet normal 0 1 0
    outer loop
      vertex 2 2 80
      vertex -9.16299 2 75.937
      vertex -9.73883 2 76.4096
    endloop
  endfacet
  facet normal 0 1 0
    outer loop
      vertex 2 2 80
      vertex -9.73883 2 76.4096
      vertex -10.3958 2 76.7607
    endloop
  endfacet
  facet normal 0 1 0
    outer loop
      vertex 2 2 80
      vertex -11.1087 2 76.977
      vertex -20 2 80
    endloop
  endfacet
  facet normal 0 1 -0
    outer loop
      vertex -10.3958 2 76.7607
      vertex -11.1087 2 76.977
      vertex 2 2 80
    endloop
  endfacet
  facet normal 0 1 0
    outer loop
      vertex -11.1087 2 76.977
      vertex -11.85 2 77.05
      vertex -20 2 80
    endloop
  endfacet
  facet normal 0 1 0
    outer loop
      vertex -11.85 2 77.05
      vertex -12.5913 2 76.977
      vertex -20 2 80
    endloop
  endfacet
  facet normal 0 1 0
    outer loop
      vertex -12.5913 2 76.977
      vertex -13.3042 2 76.7607
      vertex -20 2 80
    endloop
  endfacet
  facet normal 0 1 0
    outer loop
      vertex -13.3042 2 76.7607
      vertex -13.9612 2 76.4096
      vertex -20 2 80
    endloop
  endfacet
  facet normal 0 1 0
    outer loop
      vertex -13.9612 2 76.4096
      vertex -14.537 2 75.937
      vertex -20 2 80
    endloop
  endfacet
  facet normal 0 1 0
    outer loop
      vertex -14.537 2 75.937
      vertex -15.0096 2 75.3612
      vertex -20 2 80
    endloop
  endfacet
  facet normal 0 1 0
    outer loop
      vertex -15.0096 2 75.3612
      vertex -15.3607 2 74.7042
      vertex -20 2 80
    endloop
  endfacet
  facet normal 0 1 0
    outer loop
      vertex -15.3607 2 74.7042
      vertex -15.577 2 73.9913
      vertex -20 2 80
    endloop
  endfacet
  facet normal 0 1 0
    outer loop
      vertex -15.577 2 73.9913
      vertex -15.65 2 73.25
      vertex -20 2 80
    endloop
  endfacet
  facet normal 0 1 0
    outer loop
      vertex -9.3 2 25
      vertex -9.22698 2 24.2587
      vertex -20 2 10
    endloop
  endfacet
  facet normal 0 1 0
    outer loop
      vertex 2 2 80
      vertex 2 2 2
      vertex -1.7 2 25
    endloop
  endfacet
  facet normal 0 1 0
    outer loop
      vertex -9.22698 2 24.2587
      vertex -9.01074 2 23.5458
      vertex -20 2 10
    endloop
  endfacet
  facet normal 0 1 0
    outer loop
      vertex -6.24134 2 21.273
      vertex 2 2 2
      vertex -20 2 10
    endloop
  endfacet
  facet normal 0 1 0
    outer loop
      vertex -8.65958 2 22.8888
      vertex -20 2 10
      vertex -9.01074 2 23.5458
    endloop
  endfacet
  facet normal 0 1 0
    outer loop
      vertex -8.18701 2 22.313
      vertex -20 2 10
      vertex -8.65958 2 22.8888
    endloop
  endfacet
  facet normal 0 1 0
    outer loop
      vertex -7.61117 2 21.8404
      vertex -20 2 10
      vertex -8.18701 2 22.313
    endloop
  endfacet
  facet normal 0 1 0
    outer loop
      vertex -6.9542 2 21.4893
      vertex -20 2 10
      vertex -7.61117 2 21.8404
    endloop
  endfacet
  facet normal 0 1 0
    outer loop
      vertex -6.24134 2 21.273
      vertex -20 2 10
      vertex -6.9542 2 21.4893
    endloop
  endfacet
  facet normal 0 1 0
    outer loop
      vertex -5.5 2 21.2
      vertex 2 2 2
      vertex -6.24134 2 21.273
    endloop
  endfacet
  facet normal 0 1 0
    outer loop
      vertex -4.75866 2 21.273
      vertex 2 2 2
      vertex -5.5 2 21.2
    endloop
  endfacet
  facet normal 0 1 0
    outer loop
      vertex -4.0458 2 21.4893
      vertex 2 2 2
      vertex -4.75866 2 21.273
    endloop
  endfacet
  facet normal 0 1 0
    outer loop
      vertex -3.38883 2 21.8404
      vertex 2 2 2
      vertex -4.0458 2 21.4893
    endloop
  endfacet
  facet normal -0 1 0
    outer loop
      vertex -11.85 2 69.45
      vertex -11.1087 2 69.523
      vertex -6.24134 2 28.727
    endloop
  endfacet
  facet normal 0 1 0
    outer loop
      vertex -2.81299 2 22.313
      vertex 2 2 2
      vertex -3.38883 2 21.8404
    endloop
  endfacet
  facet normal 0 1 0
    outer loop
      vertex -5.5 2 28.8
      vertex -11.1087 2 69.523
      vertex -10.3958 2 69.7393
    endloop
  endfacet
  facet normal 0 1 0
    outer loop
      vertex -2.34042 2 22.8888
      vertex 2 2 2
      vertex -2.81299 2 22.313
    endloop
  endfacet
  facet normal 0 1 0
    outer loop
      vertex -9.73883 2 70.0904
      vertex -4.75866 2 28.727
      vertex -10.3958 2 69.7393
    endloop
  endfacet
  facet normal 0 1 0
    outer loop
      vertex -1.98926 2 23.5458
      vertex 2 2 2
      vertex -2.34042 2 22.8888
    endloop
  endfacet
  facet normal -0 1 0
    outer loop
      vertex -9.73883 2 70.0904
      vertex -9.16299 2 70.563
      vertex -4.0458 2 28.5107
    endloop
  endfacet
  facet normal 0 1 0
    outer loop
      vertex -1.77302 2 24.2587
      vertex 2 2 2
      vertex -1.98926 2 23.5458
    endloop
  endfacet
  facet normal 0 1 0
    outer loop
      vertex 2 2 80
      vertex -1.7 2 25
      vertex -1.77302 2 25.7413
    endloop
  endfacet
  facet normal 0 1 0
    outer loop
      vertex -1.7 2 25
      vertex 2 2 2
      vertex -1.77302 2 24.2587
    endloop
  endfacet
  facet normal 0 1 0
    outer loop
      vertex 2 2 80
      vertex -3.38883 2 28.1596
      vertex -8.69042 2 71.1388
    endloop
  endfacet
  facet normal 0 1 0
    outer loop
      vertex -3.38883 2 28.1596
      vertex -9.16299 2 70.563
      vertex -8.69042 2 71.1388
    endloop
  endfacet
  facet normal -0 1 0
    outer loop
      vertex -1.98926 2 26.4542
      vertex 2 2 80
      vertex -1.77302 2 25.7413
    endloop
  endfacet
  facet normal -0 1 0
    outer loop
      vertex -2.34042 2 27.1112
      vertex 2 2 80
      vertex -1.98926 2 26.4542
    endloop
  endfacet
  facet normal -0 1 0
    outer loop
      vertex -2.81299 2 27.687
      vertex 2 2 80
      vertex -2.34042 2 27.1112
    endloop
  endfacet
  facet normal -0 1 0
    outer loop
      vertex -3.38883 2 28.1596
      vertex 2 2 80
      vertex -2.81299 2 27.687
    endloop
  endfacet
  facet normal -0 1 -0
    outer loop
      vertex -4.0458 2 28.5107
      vertex -9.16299 2 70.563
      vertex -3.38883 2 28.1596
    endloop
  endfacet
  facet normal -0 1 -0
    outer loop
      vertex -4.75866 2 28.727
      vertex -9.73883 2 70.0904
      vertex -4.0458 2 28.5107
    endloop
  endfacet
  facet normal -0 1 -0
    outer loop
      vertex -5.5 2 28.8
      vertex -10.3958 2 69.7393
      vertex -4.75866 2 28.727
    endloop
  endfacet
  facet normal 0 1 -0
    outer loop
      vertex -6.24134 2 28.727
      vertex -11.1087 2 69.523
      vertex -5.5 2 28.8
    endloop
  endfacet
  facet normal 0 1 -0
    outer loop
      vertex -6.9542 2 28.5107
      vertex -11.85 2 69.45
      vertex -6.24134 2 28.727
    endloop
  endfacet
  facet normal 0 1 -0
    outer loop
      vertex -7.61117 2 28.1596
      vertex -12.5913 2 69.523
      vertex -6.9542 2 28.5107
    endloop
  endfacet
  facet normal 0 1 -0
    outer loop
      vertex -8.18701 2 27.687
      vertex -13.3042 2 69.7393
      vertex -7.61117 2 28.1596
    endloop
  endfacet
  facet normal 0 1 -0
    outer loop
      vertex -8.65958 2 27.1112
      vertex -13.9612 2 70.0904
      vertex -8.18701 2 27.687
    endloop
  endfacet
  facet normal 0 1 -0
    outer loop
      vertex -9.01074 2 26.4542
      vertex -14.537 2 70.563
      vertex -8.65958 2 27.1112
    endloop
  endfacet
  facet normal 0 1 -0
    outer loop
      vertex -9.22698 2 25.7413
      vertex -20 2 10
      vertex -9.01074 2 26.4542
    endloop
  endfacet
  facet normal 0 0 1
    outer loop
      vertex -20 0 10
      vertex -23 2 10
      vertex -23 0 10
    endloop
  endfacet
  facet normal 0 -0 1
    outer loop
      vertex -20 0 10
      vertex -20 2 10
      vertex -23 2 10
    endloop
  endfacet
  facet normal 1 0 0
    outer loop
      vertex 2 0 2
      vertex 2 -2 80
      vertex 2 -2 0
    endloop
  endfacet
  facet normal 1 0 -0
    outer loop
      vertex 2 0 0
      vertex 2 0 2
      vertex 2 -2 0
    endloop
  endfacet
  facet normal 1 0 0
    outer loop
      vertex 2 2 80
      vertex 2 -2 80
      vertex 2 0 2
    endloop
  endfacet
  facet normal 1 0 -0
    outer loop
      vertex 2 2 2
      vertex 2 2 80
      vertex 2 0 2
    endloop
  endfacet
  facet normal 0.995185 0 0.0980171
    outer loop
      vertex -9.3 2 25
      vertex -9.22698 -0.49 24.2587
      vertex -9.22698 2 24.2587
    endloop
  endfacet
  facet normal 0.995185 0 0.0980171
    outer loop
      vertex -9.3 2 25
      vertex -9.3 -0.49 25
      vertex -9.22698 -0.49 24.2587
    endloop
  endfacet
  facet normal 0.634393 0 -0.77301
    outer loop
      vertex -7.61117 -0.49 28.1596
      vertex -8.18701 2 27.687
      vertex -7.61117 2 28.1596
    endloop
  endfacet
  facet normal 0.634393 0 -0.77301
    outer loop
      vertex -7.61117 -0.49 28.1596
      vertex -8.18701 -0.49 27.687
      vertex -8.18701 2 27.687
    endloop
  endfacet
  facet normal -0.290285 0 0.95694
    outer loop
      vertex -4.75866 2 21.273
      vertex -4.0458 -0.49 21.4893
      vertex -4.0458 2 21.4893
    endloop
  endfacet
  facet normal -0.290285 0 0.95694
    outer loop
      vertex -4.75866 2 21.273
      vertex -4.75866 -0.49 21.273
      vertex -4.0458 -0.49 21.4893
    endloop
  endfacet
  facet normal 0.95694 0 0.290285
    outer loop
      vertex -9.22698 2 24.2587
      vertex -9.01074 -0.49 23.5458
      vertex -9.01074 2 23.5458
    endloop
  endfacet
  facet normal 0.95694 0 0.290285
    outer loop
      vertex -9.22698 2 24.2587
      vertex -9.22698 -0.49 24.2587
      vertex -9.01074 -0.49 23.5458
    endloop
  endfacet
  facet normal -0.995185 0 0.0980171
    outer loop
      vertex -1.77302 -0.49 24.2587
      vertex -1.7 -0.49 25
      vertex -1.7 2 25
    endloop
  endfacet
  facet normal -0.995185 0 0.0980171
    outer loop
      vertex -1.77302 2 24.2587
      vertex -1.77302 -0.49 24.2587
      vertex -1.7 2 25
    endloop
  endfacet
  facet normal 1.58917e-017 1 -1.73914e-016
    outer loop
      vertex -9.01074 -0.49 26.4542
      vertex -7.11679 -0.49 25.6697
      vertex -7.21637 -0.49 25.3414
    endloop
  endfacet
  facet normal -2.13779e-018 1 -1.49548e-016
    outer loop
      vertex -9.3 -0.49 25
      vertex -9.22698 -0.49 25.7413
      vertex -7.21637 -0.49 25.3414
    endloop
  endfacet
  facet normal 5.35431e-017 1 -2.16629e-016
    outer loop
      vertex -5.5 -0.49 21.2
      vertex -6.24134 -0.49 21.273
      vertex -5.5 -0.49 23.25
    endloop
  endfacet
  facet normal 3.57464e-017 1 -2.49284e-016
    outer loop
      vertex -6.9542 -0.49 21.4893
      vertex -7.61117 -0.49 21.8404
      vertex -6.1697 -0.49 23.3832
    endloop
  endfacet
  facet normal -6.31883e-017 1 -2.08304e-016
    outer loop
      vertex -6.9542 -0.49 21.4893
      vertex -6.1697 -0.49 23.3832
      vertex -6.24134 -0.49 21.273
    endloop
  endfacet
  facet normal 7.85105e-018 1 -2.31234e-016
    outer loop
      vertex -9.01074 -0.49 23.5458
      vertex -9.22698 -0.49 24.2587
      vertex -7.11679 -0.49 24.3303
    endloop
  endfacet
  facet normal 2.32546e-018 1 -2.32095e-016
    outer loop
      vertex -8.18701 -0.49 22.313
      vertex -6.73744 -0.49 23.7626
      vertex -7.61117 -0.49 21.8404
    endloop
  endfacet
  facet normal -2.03049e-017 1 -2.09465e-016
    outer loop
      vertex -8.65958 -0.49 22.8888
      vertex -6.73744 -0.49 23.7626
      vertex -8.18701 -0.49 22.313
    endloop
  endfacet
  facet normal 1.39748e-017 1 -2.46018e-016
    outer loop
      vertex -9.01074 -0.49 23.5458
      vertex -7.11679 -0.49 24.3303
      vertex -8.65958 -0.49 22.8888
    endloop
  endfacet
  facet normal 3.63627e-017 1 -3.21608e-016
    outer loop
      vertex -9.22698 -0.49 24.2587
      vertex -7.25 -0.49 25
      vertex -7.21637 -0.49 24.6586
    endloop
  endfacet
  facet normal -4.81812e-018 1 -2.50912e-016
    outer loop
      vertex -9.01074 -0.49 26.4542
      vertex -8.65958 -0.49 27.1112
      vertex -6.95507 -0.49 25.9722
    endloop
  endfacet
  facet normal -2.9651e-017 1 -1.99325e-016
    outer loop
      vertex -8.65958 -0.49 22.8888
      vertex -7.11679 -0.49 24.3303
      vertex -6.95507 -0.49 24.0278
    endloop
  endfacet
  facet normal 5.68266e-018 1 -1.67369e-016
    outer loop
      vertex -7.11679 -0.49 24.3303
      vertex -9.22698 -0.49 24.2587
      vertex -7.21637 -0.49 24.6586
    endloop
  endfacet
  facet normal -5.35431e-017 1 -2.16629e-016
    outer loop
      vertex -5.5 -0.49 21.2
      vertex -5.5 -0.49 23.25
      vertex -4.75866 -0.49 21.273
    endloop
  endfacet
  facet normal -3.57464e-017 1 -2.49284e-016
    outer loop
      vertex -3.38883 -0.49 21.8404
      vertex -4.0458 -0.49 21.4893
      vertex -4.8303 -0.49 23.3832
    endloop
  endfacet
  facet normal -1.48339e-017 1 -2.21501e-016
    outer loop
      vertex -6.95507 -0.49 24.0278
      vertex -6.73744 -0.49 23.7626
      vertex -8.65958 -0.49 22.8888
    endloop
  endfacet
  facet normal 6.31883e-017 1 -2.08304e-016
    outer loop
      vertex -5.15859 -0.49 23.2836
      vertex -4.0458 -0.49 21.4893
      vertex -4.75866 -0.49 21.273
    endloop
  endfacet
  facet normal 4.54069e-017 1 -2.5831e-016
    outer loop
      vertex -7.61117 -0.49 21.8404
      vertex -6.47225 -0.49 23.5449
      vertex -6.1697 -0.49 23.3832
    endloop
  endfacet
  facet normal 1.43613e-017 1 -2.37566e-016
    outer loop
      vertex -6.47225 -0.49 23.5449
      vertex -7.61117 -0.49 21.8404
      vertex -6.73744 -0.49 23.7626
    endloop
  endfacet
  facet normal -2.32546e-018 1 -2.32095e-016
    outer loop
      vertex -3.38883 -0.49 21.8404
      vertex -4.26256 -0.49 23.7626
      vertex -2.81299 -0.49 22.313
    endloop
  endfacet
  facet normal -1.39748e-017 1 -2.46018e-016
    outer loop
      vertex -1.98926 -0.49 23.5458
      vertex -2.34042 -0.49 22.8888
      vertex -3.88321 -0.49 24.3303
    endloop
  endfacet
  facet normal -6.31883e-017 1 -2.08304e-016
    outer loop
      vertex -6.1697 -0.49 23.3832
      vertex -5.84141 -0.49 23.2836
      vertex -6.24134 -0.49 21.273
    endloop
  endfacet
  facet normal 2.03049e-017 1 -2.09465e-016
    outer loop
      vertex -4.26256 -0.49 23.7626
      vertex -2.34042 -0.49 22.8888
      vertex -2.81299 -0.49 22.313
    endloop
  endfacet
  facet normal -1.38134e-016 1 -2.4835e-016
    outer loop
      vertex -4.75866 -0.49 21.273
      vertex -5.5 -0.49 23.25
      vertex -5.15859 -0.49 23.2836
    endloop
  endfacet
  facet normal 1.38134e-016 1 -2.4835e-016
    outer loop
      vertex -5.5 -0.49 23.25
      vertex -6.24134 -0.49 21.273
      vertex -5.84141 -0.49 23.2836
    endloop
  endfacet
  facet normal -7.85105e-018 1 -2.31234e-016
    outer loop
      vertex -1.98926 -0.49 23.5458
      vertex -3.88321 -0.49 24.3303
      vertex -1.77302 -0.49 24.2587
    endloop
  endfacet
  facet normal 0 1 -2.24637e-016
    outer loop
      vertex -1.77302 -0.49 25.7413
      vertex -1.7 -0.49 25
      vertex -3.75 -0.49 25
    endloop
  endfacet
  facet normal 6.31883e-017 1 -2.08304e-016
    outer loop
      vertex -5.15859 -0.49 23.2836
      vertex -4.8303 -0.49 23.3832
      vertex -4.0458 -0.49 21.4893
    endloop
  endfacet
  facet normal 0 1 -1.49758e-016
    outer loop
      vertex -3.75 -0.49 25
      vertex -1.7 -0.49 25
      vertex -1.77302 -0.49 24.2587
    endloop
  endfacet
  facet normal -1.43613e-017 1 -2.37566e-016
    outer loop
      vertex -3.38883 -0.49 21.8404
      vertex -4.52775 -0.49 23.5449
      vertex -4.26256 -0.49 23.7626
    endloop
  endfacet
  facet normal -4.54069e-017 1 -2.5831e-016
    outer loop
      vertex -4.52775 -0.49 23.5449
      vertex -3.38883 -0.49 21.8404
      vertex -4.8303 -0.49 23.3832
    endloop
  endfacet
  facet normal 7.85105e-018 1 -2.31234e-016
    outer loop
      vertex -1.77302 -0.49 25.7413
      vertex -3.88321 -0.49 25.6697
      vertex -1.98926 -0.49 26.4542
    endloop
  endfacet
  facet normal -2.19654e-017 1 -2.10828e-016
    outer loop
      vertex -2.81299 -0.49 27.687
      vertex -2.34042 -0.49 27.1112
      vertex -4.04493 -0.49 25.9722
    endloop
  endfacet
  facet normal 1.48339e-017 1 -2.21501e-016
    outer loop
      vertex -4.26256 -0.49 23.7626
      vertex -4.04493 -0.49 24.0278
      vertex -2.34042 -0.49 22.8888
    endloop
  endfacet
  facet normal 1.39748e-017 1 -2.46018e-016
    outer loop
      vertex -3.88321 -0.49 25.6697
      vertex -2.34042 -0.49 27.1112
      vertex -1.98926 -0.49 26.4542
    endloop
  endfacet
  facet normal -5.68266e-018 1 -1.67369e-016
    outer loop
      vertex -1.77302 -0.49 24.2587
      vertex -3.88321 -0.49 24.3303
      vertex -3.78363 -0.49 24.6586
    endloop
  endfacet
  facet normal 2.9651e-017 1 -1.99325e-016
    outer loop
      vertex -3.88321 -0.49 24.3303
      vertex -2.34042 -0.49 22.8888
      vertex -4.04493 -0.49 24.0278
    endloop
  endfacet
  facet normal 3.68822e-018 1 -2.30435e-016
    outer loop
      vertex -2.81299 -0.49 27.687
      vertex -4.52775 -0.49 26.4551
      vertex -3.38883 -0.49 28.1596
    endloop
  endfacet
  facet normal -6.31883e-017 1 -2.08304e-016
    outer loop
      vertex -4.75866 -0.49 28.727
      vertex -4.0458 -0.49 28.5107
      vertex -4.8303 -0.49 26.6168
    endloop
  endfacet
  facet normal -4.64205e-018 1 -1.62138e-016
    outer loop
      vertex -3.78363 -0.49 24.6586
      vertex -3.75 -0.49 25
      vertex -1.77302 -0.49 24.2587
    endloop
  endfacet
  facet normal 3.47338e-017 1 -2.51179e-016
    outer loop
      vertex -4.52775 -0.49 26.4551
      vertex -4.0458 -0.49 28.5107
      vertex -3.38883 -0.49 28.1596
    endloop
  endfacet
  facet normal 5.68266e-018 1 -1.67369e-016
    outer loop
      vertex -1.77302 -0.49 25.7413
      vertex -3.78363 -0.49 25.3414
      vertex -3.88321 -0.49 25.6697
    endloop
  endfacet
  facet normal 3.63627e-017 1 -3.21608e-016
    outer loop
      vertex -3.78363 -0.49 25.3414
      vertex -1.77302 -0.49 25.7413
      vertex -3.75 -0.49 25
    endloop
  endfacet
  facet normal 5.08761e-017 1 -2.43707e-016
    outer loop
      vertex -4.75866 -0.49 28.727
      vertex -5.5 -0.49 26.75
      vertex -5.5 -0.49 28.8
    endloop
  endfacet
  facet normal 6.31883e-017 1 -2.08304e-016
    outer loop
      vertex -6.9542 -0.49 28.5107
      vertex -6.24134 -0.49 28.727
      vertex -6.1697 -0.49 26.6168
    endloop
  endfacet
  facet normal -2.9651e-017 1 -1.99325e-016
    outer loop
      vertex -3.88321 -0.49 25.6697
      vertex -4.04493 -0.49 25.9722
      vertex -2.34042 -0.49 27.1112
    endloop
  endfacet
  facet normal -5.08761e-017 1 -2.43707e-016
    outer loop
      vertex -5.5 -0.49 26.75
      vertex -6.24134 -0.49 28.727
      vertex -5.5 -0.49 28.8
    endloop
  endfacet
  facet normal 1.14022e-017 1 -2.41172e-016
    outer loop
      vertex -2.81299 -0.49 27.687
      vertex -4.26256 -0.49 26.2374
      vertex -4.52775 -0.49 26.4551
    endloop
  endfacet
  facet normal -1.12281e-017 1 -2.18541e-016
    outer loop
      vertex -4.26256 -0.49 26.2374
      vertex -2.81299 -0.49 27.687
      vertex -4.04493 -0.49 25.9722
    endloop
  endfacet
  facet normal -3.47338e-017 1 -2.51179e-016
    outer loop
      vertex -6.9542 -0.49 28.5107
      vertex -6.47225 -0.49 26.4551
      vertex -7.61117 -0.49 28.1596
    endloop
  endfacet
  facet normal 4.76057e-017 1 -2.54196e-016
    outer loop
      vertex -4.52775 -0.49 26.4551
      vertex -4.8303 -0.49 26.6168
      vertex -4.0458 -0.49 28.5107
    endloop
  endfacet
  facet normal -3.68822e-018 1 -2.30435e-016
    outer loop
      vertex -6.47225 -0.49 26.4551
      vertex -8.18701 -0.49 27.687
      vertex -7.61117 -0.49 28.1596
    endloop
  endfacet
  facet normal -6.31883e-017 1 -2.08304e-016
    outer loop
      vertex -4.8303 -0.49 26.6168
      vertex -5.15859 -0.49 26.7164
      vertex -4.75866 -0.49 28.727
    endloop
  endfacet
  facet normal -2.13361e-017 1 -2.16629e-016
    outer loop
      vertex -5.15859 -0.49 26.7164
      vertex -5.5 -0.49 26.75
      vertex -4.75866 -0.49 28.727
    endloop
  endfacet
  facet normal 2.13361e-017 1 -2.16629e-016
    outer loop
      vertex -5.5 -0.49 26.75
      vertex -5.84141 -0.49 26.7164
      vertex -6.24134 -0.49 28.727
    endloop
  endfacet
  facet normal 2.19654e-017 1 -2.10828e-016
    outer loop
      vertex -6.95507 -0.49 25.9722
      vertex -8.65958 -0.49 27.1112
      vertex -8.18701 -0.49 27.687
    endloop
  endfacet
  facet normal 6.31883e-017 1 -2.08304e-016
    outer loop
      vertex -6.1697 -0.49 26.6168
      vertex -6.24134 -0.49 28.727
      vertex -5.84141 -0.49 26.7164
    endloop
  endfacet
  facet normal -4.76057e-017 1 -2.54196e-016
    outer loop
      vertex -6.1697 -0.49 26.6168
      vertex -6.47225 -0.49 26.4551
      vertex -6.9542 -0.49 28.5107
    endloop
  endfacet
  facet normal -1.14022e-017 1 -2.41172e-016
    outer loop
      vertex -6.47225 -0.49 26.4551
      vertex -6.73744 -0.49 26.2374
      vertex -8.18701 -0.49 27.687
    endloop
  endfacet
  facet normal -1.77866e-017 1 -2.2822e-016
    outer loop
      vertex -7.21637 -0.49 25.3414
      vertex -9.22698 -0.49 25.7413
      vertex -9.01074 -0.49 26.4542
    endloop
  endfacet
  facet normal 1.12281e-017 1 -2.18541e-016
    outer loop
      vertex -6.95507 -0.49 25.9722
      vertex -8.18701 -0.49 27.687
      vertex -6.73744 -0.49 26.2374
    endloop
  endfacet
  facet normal 9.76795e-018 1 -1.88698e-016
    outer loop
      vertex -7.11679 -0.49 25.6697
      vertex -9.01074 -0.49 26.4542
      vertex -6.95507 -0.49 25.9722
    endloop
  endfacet
  facet normal 0 1 -1.62595e-016
    outer loop
      vertex -9.3 -0.49 25
      vertex -7.21637 -0.49 25.3414
      vertex -7.25 -0.49 25
    endloop
  endfacet
  facet normal 0 1 -2.24637e-016
    outer loop
      vertex -9.3 -0.49 25
      vertex -7.25 -0.49 25
      vertex -9.22698 -0.49 24.2587
    endloop
  endfacet
  facet normal -0.77301 0 0.634393
    outer loop
      vertex -2.81299 -0.49 22.313
      vertex -2.34042 -0.49 22.8888
      vertex -2.34042 2 22.8888
    endloop
  endfacet
  facet normal -0.77301 0 0.634393
    outer loop
      vertex -2.81299 2 22.313
      vertex -2.81299 -0.49 22.313
      vertex -2.34042 2 22.8888
    endloop
  endfacet
  facet normal -0.95694 0 -0.290285
    outer loop
      vertex -1.77302 -0.49 25.7413
      vertex -1.98926 2 26.4542
      vertex -1.77302 2 25.7413
    endloop
  endfacet
  facet normal -0.95694 0 -0.290285
    outer loop
      vertex -1.77302 -0.49 25.7413
      vertex -1.98926 -0.49 26.4542
      vertex -1.98926 2 26.4542
    endloop
  endfacet
  facet normal -0.634393 -1.10293e-015 -0.77301
    outer loop
      vertex -3.38883 -0.49 28.1596
      vertex -3.38883 2 28.1596
      vertex -2.81299 2 27.687
    endloop
  endfacet
  facet normal -0.634393 0 -0.77301
    outer loop
      vertex -2.81299 -0.49 27.687
      vertex -3.38883 -0.49 28.1596
      vertex -2.81299 2 27.687
    endloop
  endfacet
  facet normal -0.0980171 0 -0.995185
    outer loop
      vertex -5.5 -0.49 28.8
      vertex -5.5 2 28.8
      vertex -4.75866 2 28.727
    endloop
  endfacet
  facet normal -0.0980171 0 -0.995185
    outer loop
      vertex -4.75866 -0.49 28.727
      vertex -5.5 -0.49 28.8
      vertex -4.75866 2 28.727
    endloop
  endfacet
  facet normal 0.995185 0 -0.0980171
    outer loop
      vertex -9.3 -0.49 25
      vertex -9.3 2 25
      vertex -9.22698 2 25.7413
    endloop
  endfacet
  facet normal 0.995185 -1.3985e-016 -0.0980171
    outer loop
      vertex -9.22698 -0.49 25.7413
      vertex -9.3 -0.49 25
      vertex -9.22698 2 25.7413
    endloop
  endfacet
  facet normal -0.471397 1.25694e-015 0.881921
    outer loop
      vertex -4.0458 2 21.4893
      vertex -3.38883 -0.49 21.8404
      vertex -3.38883 2 21.8404
    endloop
  endfacet
  facet normal -0.471397 0 0.881921
    outer loop
      vertex -4.0458 2 21.4893
      vertex -4.0458 -0.49 21.4893
      vertex -3.38883 -0.49 21.8404
    endloop
  endfacet
  facet normal 0.0980171 0 0.995185
    outer loop
      vertex -6.24134 -0.49 21.273
      vertex -5.5 -0.49 21.2
      vertex -5.5 2 21.2
    endloop
  endfacet
  facet normal 0.0980171 1.41992e-015 0.995185
    outer loop
      vertex -6.24134 2 21.273
      vertex -6.24134 -0.49 21.273
      vertex -5.5 2 21.2
    endloop
  endfacet
  facet normal 0.634393 0 0.77301
    outer loop
      vertex -8.18701 -0.49 22.313
      vertex -7.61117 -0.49 21.8404
      vertex -7.61117 2 21.8404
    endloop
  endfacet
  facet normal 0.634393 0 0.77301
    outer loop
      vertex -8.18701 2 22.313
      vertex -8.18701 -0.49 22.313
      vertex -7.61117 2 21.8404
    endloop
  endfacet
  facet normal 0.77301 0 0.634393
    outer loop
      vertex -8.65958 2 22.8888
      vertex -8.18701 -0.49 22.313
      vertex -8.18701 2 22.313
    endloop
  endfacet
  facet normal 0.77301 0 0.634393
    outer loop
      vertex -8.65958 2 22.8888
      vertex -8.65958 -0.49 22.8888
      vertex -8.18701 -0.49 22.313
    endloop
  endfacet
  facet normal 0.881921 0 0.471397
    outer loop
      vertex -9.01074 2 23.5458
      vertex -8.65958 -0.49 22.8888
      vertex -8.65958 2 22.8888
    endloop
  endfacet
  facet normal 0.881921 0 0.471397
    outer loop
      vertex -9.01074 2 23.5458
      vertex -9.01074 -0.49 23.5458
      vertex -8.65958 -0.49 22.8888
    endloop
  endfacet
  facet normal -0.77301 0 -0.634393
    outer loop
      vertex -2.34042 -0.49 27.1112
      vertex -2.81299 2 27.687
      vertex -2.34042 2 27.1112
    endloop
  endfacet
  facet normal -0.77301 0 -0.634393
    outer loop
      vertex -2.34042 -0.49 27.1112
      vertex -2.81299 -0.49 27.687
      vertex -2.81299 2 27.687
    endloop
  endfacet
  facet normal -0.881921 0 0.471397
    outer loop
      vertex -2.34042 -0.49 22.8888
      vertex -1.98926 -0.49 23.5458
      vertex -1.98926 2 23.5458
    endloop
  endfacet
  facet normal -0.881921 0 0.471397
    outer loop
      vertex -2.34042 2 22.8888
      vertex -2.34042 -0.49 22.8888
      vertex -1.98926 2 23.5458
    endloop
  endfacet
  facet normal -0.471397 0 -0.881921
    outer loop
      vertex -4.0458 -0.49 28.5107
      vertex -4.0458 2 28.5107
      vertex -3.38883 2 28.1596
    endloop
  endfacet
  facet normal -0.471397 -1.25832e-015 -0.881921
    outer loop
      vertex -3.38883 -0.49 28.1596
      vertex -4.0458 -0.49 28.5107
      vertex -3.38883 2 28.1596
    endloop
  endfacet
  facet normal -0.290285 0 -0.95694
    outer loop
      vertex -4.75866 -0.49 28.727
      vertex -4.75866 2 28.727
      vertex -4.0458 2 28.5107
    endloop
  endfacet
  facet normal -0.290285 0 -0.95694
    outer loop
      vertex -4.0458 -0.49 28.5107
      vertex -4.75866 -0.49 28.727
      vertex -4.0458 2 28.5107
    endloop
  endfacet
  facet normal 0.471397 0 -0.881921
    outer loop
      vertex -6.9542 -0.49 28.5107
      vertex -7.61117 2 28.1596
      vertex -6.9542 2 28.5107
    endloop
  endfacet
  facet normal 0.471397 0 -0.881921
    outer loop
      vertex -6.9542 -0.49 28.5107
      vertex -7.61117 -0.49 28.1596
      vertex -7.61117 2 28.1596
    endloop
  endfacet
  facet normal 0.881921 0 -0.471397
    outer loop
      vertex -9.01074 -0.49 26.4542
      vertex -9.01074 2 26.4542
      vertex -8.65958 2 27.1112
    endloop
  endfacet
  facet normal 0.881921 0 -0.471397
    outer loop
      vertex -8.65958 -0.49 27.1112
      vertex -9.01074 -0.49 26.4542
      vertex -8.65958 2 27.1112
    endloop
  endfacet
  facet normal 0.77301 0 -0.634393
    outer loop
      vertex -8.65958 -0.49 27.1112
      vertex -8.65958 2 27.1112
      vertex -8.18701 2 27.687
    endloop
  endfacet
  facet normal 0.77301 0 -0.634393
    outer loop
      vertex -8.18701 -0.49 27.687
      vertex -8.65958 -0.49 27.1112
      vertex -8.18701 2 27.687
    endloop
  endfacet
  facet normal 0.95694 -4.14176e-016 -0.290285
    outer loop
      vertex -9.22698 -0.49 25.7413
      vertex -9.22698 2 25.7413
      vertex -9.01074 2 26.4542
    endloop
  endfacet
  facet normal 0.95694 0 -0.290285
    outer loop
      vertex -9.01074 -0.49 26.4542
      vertex -9.22698 -0.49 25.7413
      vertex -9.01074 2 26.4542
    endloop
  endfacet
  facet normal -0.0980171 0 0.995185
    outer loop
      vertex -5.5 2 21.2
      vertex -4.75866 -0.49 21.273
      vertex -4.75866 2 21.273
    endloop
  endfacet
  facet normal -0.0980171 0 0.995185
    outer loop
      vertex -5.5 2 21.2
      vertex -5.5 -0.49 21.2
      vertex -4.75866 -0.49 21.273
    endloop
  endfacet
  facet normal -0.95694 0 0.290285
    outer loop
      vertex -1.98926 -0.49 23.5458
      vertex -1.77302 -0.49 24.2587
      vertex -1.77302 2 24.2587
    endloop
  endfacet
  facet normal -0.95694 0 0.290285
    outer loop
      vertex -1.98926 2 23.5458
      vertex -1.98926 -0.49 23.5458
      vertex -1.77302 2 24.2587
    endloop
  endfacet
  facet normal 0.290285 0 -0.95694
    outer loop
      vertex -6.24134 -0.49 28.727
      vertex -6.9542 2 28.5107
      vertex -6.24134 2 28.727
    endloop
  endfacet
  facet normal 0.290285 0 -0.95694
    outer loop
      vertex -6.24134 -0.49 28.727
      vertex -6.9542 -0.49 28.5107
      vertex -6.9542 2 28.5107
    endloop
  endfacet
  facet normal 0.0980171 0 -0.995185
    outer loop
      vertex -5.5 -0.49 28.8
      vertex -6.24134 2 28.727
      vertex -5.5 2 28.8
    endloop
  endfacet
  facet normal 0.0980171 0 -0.995185
    outer loop
      vertex -5.5 -0.49 28.8
      vertex -6.24134 -0.49 28.727
      vertex -6.24134 2 28.727
    endloop
  endfacet
  facet normal -0.634393 0 0.77301
    outer loop
      vertex -3.38883 2 21.8404
      vertex -2.81299 -0.49 22.313
      vertex -2.81299 2 22.313
    endloop
  endfacet
  facet normal -0.634393 1.10293e-015 0.77301
    outer loop
      vertex -3.38883 2 21.8404
      vertex -3.38883 -0.49 21.8404
      vertex -2.81299 -0.49 22.313
    endloop
  endfacet
  facet normal 0.471397 0 0.881921
    outer loop
      vertex -7.61117 -0.49 21.8404
      vertex -6.9542 -0.49 21.4893
      vertex -6.9542 2 21.4893
    endloop
  endfacet
  facet normal 0.471397 0 0.881921
    outer loop
      vertex -7.61117 2 21.8404
      vertex -7.61117 -0.49 21.8404
      vertex -6.9542 2 21.4893
    endloop
  endfacet
  facet normal 0.290285 1.37665e-015 0.95694
    outer loop
      vertex -6.9542 -0.49 21.4893
      vertex -6.24134 -0.49 21.273
      vertex -6.24134 2 21.273
    endloop
  endfacet
  facet normal 0.290285 0 0.95694
    outer loop
      vertex -6.9542 2 21.4893
      vertex -6.9542 -0.49 21.4893
      vertex -6.24134 2 21.273
    endloop
  endfacet
  facet normal -0.881921 0 -0.471397
    outer loop
      vertex -1.98926 -0.49 26.4542
      vertex -2.34042 2 27.1112
      vertex -1.98926 2 26.4542
    endloop
  endfacet
  facet normal -0.881921 0 -0.471397
    outer loop
      vertex -1.98926 -0.49 26.4542
      vertex -2.34042 -0.49 27.1112
      vertex -2.34042 2 27.1112
    endloop
  endfacet
  facet normal -0.995185 0 -0.0980171
    outer loop
      vertex -1.7 -0.49 25
      vertex -1.77302 2 25.7413
      vertex -1.7 2 25
    endloop
  endfacet
  facet normal -0.995185 0 -0.0980171
    outer loop
      vertex -1.7 -0.49 25
      vertex -1.77302 -0.49 25.7413
      vertex -1.77302 2 25.7413
    endloop
  endfacet
  facet normal 0.995185 2.31064e-016 0.0980171
    outer loop
      vertex -7.25 -0.49 25
      vertex -7.21637 -2 24.6586
      vertex -7.21637 -0.49 24.6586
    endloop
  endfacet
  facet normal 0.995185 0 0.0980171
    outer loop
      vertex -7.25 -0.49 25
      vertex -7.25 -2 25
      vertex -7.21637 -2 24.6586
    endloop
  endfacet
  facet normal 0.634393 0 -0.77301
    outer loop
      vertex -6.47225 -2 26.4551
      vertex -6.73744 -0.49 26.2374
      vertex -6.47225 -0.49 26.4551
    endloop
  endfacet
  facet normal 0.634393 0 -0.77301
    outer loop
      vertex -6.47225 -2 26.4551
      vertex -6.73744 -2 26.2374
      vertex -6.73744 -0.49 26.2374
    endloop
  endfacet
  facet normal -0.290285 0 0.95694
    outer loop
      vertex -5.15859 -0.49 23.2836
      vertex -4.8303 -2 23.3832
      vertex -4.8303 -0.49 23.3832
    endloop
  endfacet
  facet normal -0.290285 0 0.95694
    outer loop
      vertex -5.15859 -0.49 23.2836
      vertex -5.15859 -2 23.2836
      vertex -4.8303 -2 23.3832
    endloop
  endfacet
  facet normal 0.471397 0 0.881921
    outer loop
      vertex -6.47225 -2 23.5449
      vertex -6.1697 -2 23.3832
      vertex -6.1697 -0.49 23.3832
    endloop
  endfacet
  facet normal 0.471397 0 0.881921
    outer loop
      vertex -6.47225 -0.49 23.5449
      vertex -6.47225 -2 23.5449
      vertex -6.1697 -0.49 23.3832
    endloop
  endfacet
  facet normal 0.0980171 0 0.995185
    outer loop
      vertex -5.84141 -2 23.2836
      vertex -5.5 -2 23.25
      vertex -5.5 -0.49 23.25
    endloop
  endfacet
  facet normal 0.0980171 0 0.995185
    outer loop
      vertex -5.84141 -0.49 23.2836
      vertex -5.84141 -2 23.2836
      vertex -5.5 -0.49 23.25
    endloop
  endfacet
  facet normal 0.95694 0 0.290285
    outer loop
      vertex -7.21637 -0.49 24.6586
      vertex -7.11679 -2 24.3303
      vertex -7.11679 -0.49 24.3303
    endloop
  endfacet
  facet normal 0.95694 6.82979e-016 0.290285
    outer loop
      vertex -7.21637 -0.49 24.6586
      vertex -7.21637 -2 24.6586
      vertex -7.11679 -2 24.3303
    endloop
  endfacet
  facet normal -0.995185 0 0.0980171
    outer loop
      vertex -3.78363 -2 24.6586
      vertex -3.75 -2 25
      vertex -3.75 -0.49 25
    endloop
  endfacet
  facet normal -0.995185 0 0.0980171
    outer loop
      vertex -3.78363 -0.49 24.6586
      vertex -3.78363 -2 24.6586
      vertex -3.75 -0.49 25
    endloop
  endfacet
  facet normal -0.77301 0 0.634393
    outer loop
      vertex -4.26256 -2 23.7626
      vertex -4.04493 -2 24.0278
      vertex -4.04493 -0.49 24.0278
    endloop
  endfacet
  facet normal -0.77301 1.49259e-015 0.634393
    outer loop
      vertex -4.26256 -0.49 23.7626
      vertex -4.26256 -2 23.7626
      vertex -4.04493 -0.49 24.0278
    endloop
  endfacet
  facet normal -0.0980171 0 0.995185
    outer loop
      vertex -5.5 -0.49 23.25
      vertex -5.15859 -2 23.2836
      vertex -5.15859 -0.49 23.2836
    endloop
  endfacet
  facet normal -0.0980171 0 0.995185
    outer loop
      vertex -5.5 -0.49 23.25
      vertex -5.5 -2 23.25
      vertex -5.15859 -2 23.2836
    endloop
  endfacet
  facet normal -0.95694 0 -0.290285
    outer loop
      vertex -3.78363 -2 25.3414
      vertex -3.88321 -0.49 25.6697
      vertex -3.78363 -0.49 25.3414
    endloop
  endfacet
  facet normal -0.95694 0 -0.290285
    outer loop
      vertex -3.78363 -2 25.3414
      vertex -3.88321 -2 25.6697
      vertex -3.88321 -0.49 25.6697
    endloop
  endfacet
  facet normal -0.95694 0 0.290285
    outer loop
      vertex -3.88321 -2 24.3303
      vertex -3.78363 -2 24.6586
      vertex -3.78363 -0.49 24.6586
    endloop
  endfacet
  facet normal -0.95694 0 0.290285
    outer loop
      vertex -3.88321 -0.49 24.3303
      vertex -3.88321 -2 24.3303
      vertex -3.78363 -0.49 24.6586
    endloop
  endfacet
  facet normal -0.634393 0 -0.77301
    outer loop
      vertex -4.52775 -2 26.4551
      vertex -4.52775 -0.49 26.4551
      vertex -4.26256 -0.49 26.2374
    endloop
  endfacet
  facet normal -0.634393 0 -0.77301
    outer loop
      vertex -4.26256 -2 26.2374
      vertex -4.52775 -2 26.4551
      vertex -4.26256 -0.49 26.2374
    endloop
  endfacet
  facet normal 0.995185 0 -0.0980171
    outer loop
      vertex -7.25 -2 25
      vertex -7.25 -0.49 25
      vertex -7.21637 -0.49 25.3414
    endloop
  endfacet
  facet normal 0.995185 0 -0.0980171
    outer loop
      vertex -7.21637 -2 25.3414
      vertex -7.25 -2 25
      vertex -7.21637 -0.49 25.3414
    endloop
  endfacet
  facet normal 0.290285 0 0.95694
    outer loop
      vertex -6.1697 -2 23.3832
      vertex -5.84141 -2 23.2836
      vertex -5.84141 -0.49 23.2836
    endloop
  endfacet
  facet normal 0.290285 0 0.95694
    outer loop
      vertex -6.1697 -0.49 23.3832
      vertex -6.1697 -2 23.3832
      vertex -5.84141 -0.49 23.2836
    endloop
  endfacet
  facet normal 0.634393 0 0.77301
    outer loop
      vertex -6.73744 -2 23.7626
      vertex -6.47225 -2 23.5449
      vertex -6.47225 -0.49 23.5449
    endloop
  endfacet
  facet normal 0.634393 0 0.77301
    outer loop
      vertex -6.73744 -0.49 23.7626
      vertex -6.73744 -2 23.7626
      vertex -6.47225 -0.49 23.5449
    endloop
  endfacet
  facet normal 0.881921 0 0.471397
    outer loop
      vertex -7.11679 -0.49 24.3303
      vertex -6.95507 -2 24.0278
      vertex -6.95507 -0.49 24.0278
    endloop
  endfacet
  facet normal 0.881921 0 0.471397
    outer loop
      vertex -7.11679 -0.49 24.3303
      vertex -7.11679 -2 24.3303
      vertex -6.95507 -2 24.0278
    endloop
  endfacet
  facet normal -0.77301 0 -0.634393
    outer loop
      vertex -4.04493 -2 25.9722
      vertex -4.26256 -0.49 26.2374
      vertex -4.04493 -0.49 25.9722
    endloop
  endfacet
  facet normal -0.77301 0 -0.634393
    outer loop
      vertex -4.04493 -2 25.9722
      vertex -4.26256 -2 26.2374
      vertex -4.26256 -0.49 26.2374
    endloop
  endfacet
  facet normal -0.634393 1.82172e-015 0.77301
    outer loop
      vertex -4.52775 -0.49 23.5449
      vertex -4.26256 -2 23.7626
      vertex -4.26256 -0.49 23.7626
    endloop
  endfacet
  facet normal -0.634393 0 0.77301
    outer loop
      vertex -4.52775 -0.49 23.5449
      vertex -4.52775 -2 23.5449
      vertex -4.26256 -2 23.7626
    endloop
  endfacet
  facet normal -0.881921 0 0.471397
    outer loop
      vertex -4.04493 -2 24.0278
      vertex -3.88321 -2 24.3303
      vertex -3.88321 -0.49 24.3303
    endloop
  endfacet
  facet normal -0.881921 0 0.471397
    outer loop
      vertex -4.04493 -0.49 24.0278
      vertex -4.04493 -2 24.0278
      vertex -3.88321 -0.49 24.3303
    endloop
  endfacet
  facet normal -0.471397 -2.07498e-015 -0.881921
    outer loop
      vertex -4.8303 -2 26.6168
      vertex -4.8303 -0.49 26.6168
      vertex -4.52775 -0.49 26.4551
    endloop
  endfacet
  facet normal -0.471397 0 -0.881921
    outer loop
      vertex -4.52775 -2 26.4551
      vertex -4.8303 -2 26.6168
      vertex -4.52775 -0.49 26.4551
    endloop
  endfacet
  facet normal -0.0980171 0 -0.995185
    outer loop
      vertex -5.5 -2 26.75
      vertex -5.5 -0.49 26.75
      vertex -5.15859 -0.49 26.7164
    endloop
  endfacet
  facet normal -0.0980171 0 -0.995185
    outer loop
      vertex -5.15859 -2 26.7164
      vertex -5.5 -2 26.75
      vertex -5.15859 -0.49 26.7164
    endloop
  endfacet
  facet normal 0.471397 -2.07498e-015 -0.881921
    outer loop
      vertex -6.1697 -2 26.6168
      vertex -6.47225 -0.49 26.4551
      vertex -6.1697 -0.49 26.6168
    endloop
  endfacet
  facet normal 0.471397 0 -0.881921
    outer loop
      vertex -6.1697 -2 26.6168
      vertex -6.47225 -2 26.4551
      vertex -6.47225 -0.49 26.4551
    endloop
  endfacet
  facet normal 0.881921 -1.1091e-015 -0.471397
    outer loop
      vertex -7.11679 -2 25.6697
      vertex -7.11679 -0.49 25.6697
      vertex -6.95507 -0.49 25.9722
    endloop
  endfacet
  facet normal 0.881921 0 -0.471397
    outer loop
      vertex -6.95507 -2 25.9722
      vertex -7.11679 -2 25.6697
      vertex -6.95507 -0.49 25.9722
    endloop
  endfacet
  facet normal 0.77301 0 -0.634393
    outer loop
      vertex -6.95507 -2 25.9722
      vertex -6.95507 -0.49 25.9722
      vertex -6.73744 -0.49 26.2374
    endloop
  endfacet
  facet normal 0.77301 0 -0.634393
    outer loop
      vertex -6.73744 -2 26.2374
      vertex -6.95507 -2 25.9722
      vertex -6.73744 -0.49 26.2374
    endloop
  endfacet
  facet normal 0.95694 0 -0.290285
    outer loop
      vertex -7.21637 -2 25.3414
      vertex -7.21637 -0.49 25.3414
      vertex -7.11679 -0.49 25.6697
    endloop
  endfacet
  facet normal 0.95694 -6.82979e-016 -0.290285
    outer loop
      vertex -7.11679 -2 25.6697
      vertex -7.21637 -2 25.3414
      vertex -7.11679 -0.49 25.6697
    endloop
  endfacet
  facet normal 0.77301 0 0.634393
    outer loop
      vertex -6.95507 -0.49 24.0278
      vertex -6.73744 -2 23.7626
      vertex -6.73744 -0.49 23.7626
    endloop
  endfacet
  facet normal 0.77301 0 0.634393
    outer loop
      vertex -6.95507 -0.49 24.0278
      vertex -6.95507 -2 24.0278
      vertex -6.73744 -2 23.7626
    endloop
  endfacet
  facet normal -0.881921 0 -0.471397
    outer loop
      vertex -3.88321 -2 25.6697
      vertex -4.04493 -0.49 25.9722
      vertex -3.88321 -0.49 25.6697
    endloop
  endfacet
  facet normal -0.881921 0 -0.471397
    outer loop
      vertex -3.88321 -2 25.6697
      vertex -4.04493 -2 25.9722
      vertex -4.04493 -0.49 25.9722
    endloop
  endfacet
  facet normal -0.471397 0 0.881921
    outer loop
      vertex -4.8303 -0.49 23.3832
      vertex -4.52775 -2 23.5449
      vertex -4.52775 -0.49 23.5449
    endloop
  endfacet
  facet normal -0.471397 0 0.881921
    outer loop
      vertex -4.8303 -0.49 23.3832
      vertex -4.8303 -2 23.3832
      vertex -4.52775 -2 23.5449
    endloop
  endfacet
  facet normal -0.290285 0 -0.95694
    outer loop
      vertex -5.15859 -2 26.7164
      vertex -5.15859 -0.49 26.7164
      vertex -4.8303 -0.49 26.6168
    endloop
  endfacet
  facet normal -0.290285 -2.25148e-015 -0.95694
    outer loop
      vertex -4.8303 -2 26.6168
      vertex -5.15859 -2 26.7164
      vertex -4.8303 -0.49 26.6168
    endloop
  endfacet
  facet normal 0.290285 0 -0.95694
    outer loop
      vertex -5.84141 -2 26.7164
      vertex -6.1697 -0.49 26.6168
      vertex -5.84141 -0.49 26.7164
    endloop
  endfacet
  facet normal 0.290285 -2.25036e-015 -0.95694
    outer loop
      vertex -5.84141 -2 26.7164
      vertex -6.1697 -2 26.6168
      vertex -6.1697 -0.49 26.6168
    endloop
  endfacet
  facet normal 0.0980171 0 -0.995185
    outer loop
      vertex -5.5 -2 26.75
      vertex -5.84141 -0.49 26.7164
      vertex -5.5 -0.49 26.75
    endloop
  endfacet
  facet normal 0.0980171 0 -0.995185
    outer loop
      vertex -5.5 -2 26.75
      vertex -5.84141 -2 26.7164
      vertex -5.84141 -0.49 26.7164
    endloop
  endfacet
  facet normal -0.995185 0 -0.0980171
    outer loop
      vertex -3.75 -2 25
      vertex -3.78363 -0.49 25.3414
      vertex -3.75 -0.49 25
    endloop
  endfacet
  facet normal -0.995185 0 -0.0980171
    outer loop
      vertex -3.75 -2 25
      vertex -3.78363 -2 25.3414
      vertex -3.78363 -0.49 25.3414
    endloop
  endfacet
  facet normal 0.995185 0 0.0980171
    outer loop
      vertex -15.65 2 73.25
      vertex -15.577 -0.49 72.5087
      vertex -15.577 2 72.5087
    endloop
  endfacet
  facet normal 0.995185 0 0.0980171
    outer loop
      vertex -15.65 2 73.25
      vertex -15.65 -0.49 73.25
      vertex -15.577 -0.49 72.5087
    endloop
  endfacet
  facet normal 0.634393 0 -0.77301
    outer loop
      vertex -13.9612 -0.49 76.4096
      vertex -14.537 2 75.937
      vertex -13.9612 2 76.4096
    endloop
  endfacet
  facet normal 0.634393 0 -0.77301
    outer loop
      vertex -13.9612 -0.49 76.4096
      vertex -14.537 -0.49 75.937
      vertex -14.537 2 75.937
    endloop
  endfacet
  facet normal -0.290285 0 0.95694
    outer loop
      vertex -11.1087 2 69.523
      vertex -10.3958 -0.49 69.7393
      vertex -10.3958 2 69.7393
    endloop
  endfacet
  facet normal -0.290285 0 0.95694
    outer loop
      vertex -11.1087 2 69.523
      vertex -11.1087 -0.49 69.523
      vertex -10.3958 -0.49 69.7393
    endloop
  endfacet
  facet normal -0.995185 0 0.0980171
    outer loop
      vertex -8.12302 -0.49 72.5087
      vertex -8.05 -0.49 73.25
      vertex -8.05 2 73.25
    endloop
  endfacet
  facet normal -0.995185 0 0.0980171
    outer loop
      vertex -8.12302 2 72.5087
      vertex -8.12302 -0.49 72.5087
      vertex -8.05 2 73.25
    endloop
  endfacet
  facet normal 1.58917e-017 1 -1.73914e-016
    outer loop
      vertex -15.3607 -0.49 74.7042
      vertex -13.4668 -0.49 73.9197
      vertex -13.5664 -0.49 73.5914
    endloop
  endfacet
  facet normal -2.13779e-018 1 -1.49548e-016
    outer loop
      vertex -15.65 -0.49 73.25
      vertex -15.577 -0.49 73.9913
      vertex -13.5664 -0.49 73.5914
    endloop
  endfacet
  facet normal 5.35431e-017 1 -2.16629e-016
    outer loop
      vertex -11.85 -0.49 69.45
      vertex -12.5913 -0.49 69.523
      vertex -11.85 -0.49 71.5
    endloop
  endfacet
  facet normal 3.57464e-017 1 -2.49284e-016
    outer loop
      vertex -13.3042 -0.49 69.7393
      vertex -13.9612 -0.49 70.0904
      vertex -12.5197 -0.49 71.6332
    endloop
  endfacet
  facet normal -6.31883e-017 1 -2.08304e-016
    outer loop
      vertex -13.3042 -0.49 69.7393
      vertex -12.5197 -0.49 71.6332
      vertex -12.5913 -0.49 69.523
    endloop
  endfacet
  facet normal 7.85105e-018 1 -2.31234e-016
    outer loop
      vertex -15.3607 -0.49 71.7958
      vertex -15.577 -0.49 72.5087
      vertex -13.4668 -0.49 72.5803
    endloop
  endfacet
  facet normal 2.32546e-018 1 -2.32095e-016
    outer loop
      vertex -14.537 -0.49 70.563
      vertex -13.0874 -0.49 72.0126
      vertex -13.9612 -0.49 70.0904
    endloop
  endfacet
  facet normal -2.03049e-017 1 -2.09465e-016
    outer loop
      vertex -15.0096 -0.49 71.1388
      vertex -13.0874 -0.49 72.0126
      vertex -14.537 -0.49 70.563
    endloop
  endfacet
  facet normal 1.39748e-017 1 -2.46018e-016
    outer loop
      vertex -15.3607 -0.49 71.7958
      vertex -13.4668 -0.49 72.5803
      vertex -15.0096 -0.49 71.1388
    endloop
  endfacet
  facet normal 3.63627e-017 1 -3.21608e-016
    outer loop
      vertex -15.577 -0.49 72.5087
      vertex -13.6 -0.49 73.25
      vertex -13.5664 -0.49 72.9086
    endloop
  endfacet
  facet normal -4.81812e-018 1 -2.50912e-016
    outer loop
      vertex -15.3607 -0.49 74.7042
      vertex -15.0096 -0.49 75.3612
      vertex -13.3051 -0.49 74.2222
    endloop
  endfacet
  facet normal -2.9651e-017 1 -1.99325e-016
    outer loop
      vertex -15.0096 -0.49 71.1388
      vertex -13.4668 -0.49 72.5803
      vertex -13.3051 -0.49 72.2778
    endloop
  endfacet
  facet normal 5.68266e-018 1 -1.67369e-016
    outer loop
      vertex -13.4668 -0.49 72.5803
      vertex -15.577 -0.49 72.5087
      vertex -13.5664 -0.49 72.9086
    endloop
  endfacet
  facet normal -5.35431e-017 1 -2.16629e-016
    outer loop
      vertex -11.85 -0.49 69.45
      vertex -11.85 -0.49 71.5
      vertex -11.1087 -0.49 69.523
    endloop
  endfacet
  facet normal -3.57464e-017 1 -2.49284e-016
    outer loop
      vertex -9.73883 -0.49 70.0904
      vertex -10.3958 -0.49 69.7393
      vertex -11.1803 -0.49 71.6332
    endloop
  endfacet
  facet normal -1.48339e-017 1 -2.21501e-016
    outer loop
      vertex -13.3051 -0.49 72.2778
      vertex -13.0874 -0.49 72.0126
      vertex -15.0096 -0.49 71.1388
    endloop
  endfacet
  facet normal 6.31883e-017 1 -2.08304e-016
    outer loop
      vertex -11.5086 -0.49 71.5336
      vertex -10.3958 -0.49 69.7393
      vertex -11.1087 -0.49 69.523
    endloop
  endfacet
  facet normal 4.54069e-017 1 -2.5831e-016
    outer loop
      vertex -13.9612 -0.49 70.0904
      vertex -12.8222 -0.49 71.7949
      vertex -12.5197 -0.49 71.6332
    endloop
  endfacet
  facet normal 1.43613e-017 1 -2.37566e-016
    outer loop
      vertex -12.8222 -0.49 71.7949
      vertex -13.9612 -0.49 70.0904
      vertex -13.0874 -0.49 72.0126
    endloop
  endfacet
  facet normal -2.32546e-018 1 -2.32095e-016
    outer loop
      vertex -9.73883 -0.49 70.0904
      vertex -10.6126 -0.49 72.0126
      vertex -9.16299 -0.49 70.563
    endloop
  endfacet
  facet normal -1.39748e-017 1 -2.46018e-016
    outer loop
      vertex -8.33926 -0.49 71.7958
      vertex -8.69042 -0.49 71.1388
      vertex -10.2332 -0.49 72.5803
    endloop
  endfacet
  facet normal -6.31883e-017 1 -2.08304e-016
    outer loop
      vertex -12.5197 -0.49 71.6332
      vertex -12.1914 -0.49 71.5336
      vertex -12.5913 -0.49 69.523
    endloop
  endfacet
  facet normal 2.03049e-017 1 -2.09465e-016
    outer loop
      vertex -10.6126 -0.49 72.0126
      vertex -8.69042 -0.49 71.1388
      vertex -9.16299 -0.49 70.563
    endloop
  endfacet
  facet normal -1.38134e-016 1 -2.4835e-016
    outer loop
      vertex -11.1087 -0.49 69.523
      vertex -11.85 -0.49 71.5
      vertex -11.5086 -0.49 71.5336
    endloop
  endfacet
  facet normal 1.38134e-016 1 -2.4835e-016
    outer loop
      vertex -11.85 -0.49 71.5
      vertex -12.5913 -0.49 69.523
      vertex -12.1914 -0.49 71.5336
    endloop
  endfacet
  facet normal -7.85105e-018 1 -2.31234e-016
    outer loop
      vertex -8.33926 -0.49 71.7958
      vertex -10.2332 -0.49 72.5803
      vertex -8.12302 -0.49 72.5087
    endloop
  endfacet
  facet normal 0 1 -2.24637e-016
    outer loop
      vertex -8.12302 -0.49 73.9913
      vertex -8.05 -0.49 73.25
      vertex -10.1 -0.49 73.25
    endloop
  endfacet
  facet normal 6.31883e-017 1 -2.08304e-016
    outer loop
      vertex -11.5086 -0.49 71.5336
      vertex -11.1803 -0.49 71.6332
      vertex -10.3958 -0.49 69.7393
    endloop
  endfacet
  facet normal 0 1 -1.49758e-016
    outer loop
      vertex -10.1 -0.49 73.25
      vertex -8.05 -0.49 73.25
      vertex -8.12302 -0.49 72.5087
    endloop
  endfacet
  facet normal -1.43613e-017 1 -2.37566e-016
    outer loop
      vertex -9.73883 -0.49 70.0904
      vertex -10.8778 -0.49 71.7949
      vertex -10.6126 -0.49 72.0126
    endloop
  endfacet
  facet normal -4.54069e-017 1 -2.5831e-016
    outer loop
      vertex -10.8778 -0.49 71.7949
      vertex -9.73883 -0.49 70.0904
      vertex -11.1803 -0.49 71.6332
    endloop
  endfacet
  facet normal 7.85105e-018 1 -2.31234e-016
    outer loop
      vertex -8.12302 -0.49 73.9913
      vertex -10.2332 -0.49 73.9197
      vertex -8.33926 -0.49 74.7042
    endloop
  endfacet
  facet normal -2.19654e-017 1 -2.10828e-016
    outer loop
      vertex -9.16299 -0.49 75.937
      vertex -8.69042 -0.49 75.3612
      vertex -10.3949 -0.49 74.2222
    endloop
  endfacet
  facet normal 1.48339e-017 1 -2.21501e-016
    outer loop
      vertex -10.6126 -0.49 72.0126
      vertex -10.3949 -0.49 72.2778
      vertex -8.69042 -0.49 71.1388
    endloop
  endfacet
  facet normal 1.39748e-017 1 -2.46018e-016
    outer loop
      vertex -10.2332 -0.49 73.9197
      vertex -8.69042 -0.49 75.3612
      vertex -8.33926 -0.49 74.7042
    endloop
  endfacet
  facet normal -5.68266e-018 1 -1.67369e-016
    outer loop
      vertex -8.12302 -0.49 72.5087
      vertex -10.2332 -0.49 72.5803
      vertex -10.1336 -0.49 72.9086
    endloop
  endfacet
  facet normal 2.9651e-017 1 -1.99325e-016
    outer loop
      vertex -10.2332 -0.49 72.5803
      vertex -8.69042 -0.49 71.1388
      vertex -10.3949 -0.49 72.2778
    endloop
  endfacet
  facet normal 3.68822e-018 1 -2.30435e-016
    outer loop
      vertex -9.16299 -0.49 75.937
      vertex -10.8778 -0.49 74.7051
      vertex -9.73883 -0.49 76.4096
    endloop
  endfacet
  facet normal -6.31883e-017 1 -2.08304e-016
    outer loop
      vertex -11.1087 -0.49 76.977
      vertex -10.3958 -0.49 76.7607
      vertex -11.1803 -0.49 74.8668
    endloop
  endfacet
  facet normal -4.64205e-018 1 -1.62138e-016
    outer loop
      vertex -10.1336 -0.49 72.9086
      vertex -10.1 -0.49 73.25
      vertex -8.12302 -0.49 72.5087
    endloop
  endfacet
  facet normal 3.47338e-017 1 -2.51179e-016
    outer loop
      vertex -10.8778 -0.49 74.7051
      vertex -10.3958 -0.49 76.7607
      vertex -9.73883 -0.49 76.4096
    endloop
  endfacet
  facet normal 5.68266e-018 1 -1.67369e-016
    outer loop
      vertex -8.12302 -0.49 73.9913
      vertex -10.1336 -0.49 73.5914
      vertex -10.2332 -0.49 73.9197
    endloop
  endfacet
  facet normal 3.63627e-017 1 -3.21608e-016
    outer loop
      vertex -10.1336 -0.49 73.5914
      vertex -8.12302 -0.49 73.9913
      vertex -10.1 -0.49 73.25
    endloop
  endfacet
  facet normal 5.08761e-017 1 -2.43707e-016
    outer loop
      vertex -11.1087 -0.49 76.977
      vertex -11.85 -0.49 75
      vertex -11.85 -0.49 77.05
    endloop
  endfacet
  facet normal 6.31883e-017 1 -2.08304e-016
    outer loop
      vertex -13.3042 -0.49 76.7607
      vertex -12.5913 -0.49 76.977
      vertex -12.5197 -0.49 74.8668
    endloop
  endfacet
  facet normal -2.9651e-017 1 -1.99325e-016
    outer loop
      vertex -10.2332 -0.49 73.9197
      vertex -10.3949 -0.49 74.2222
      vertex -8.69042 -0.49 75.3612
    endloop
  endfacet
  facet normal -5.08761e-017 1 -2.43707e-016
    outer loop
      vertex -11.85 -0.49 75
      vertex -12.5913 -0.49 76.977
      vertex -11.85 -0.49 77.05
    endloop
  endfacet
  facet normal 1.14022e-017 1 -2.41172e-016
    outer loop
      vertex -9.16299 -0.49 75.937
      vertex -10.6126 -0.49 74.4874
      vertex -10.8778 -0.49 74.7051
    endloop
  endfacet
  facet normal -1.12281e-017 1 -2.18541e-016
    outer loop
      vertex -10.6126 -0.49 74.4874
      vertex -9.16299 -0.49 75.937
      vertex -10.3949 -0.49 74.2222
    endloop
  endfacet
  facet normal -3.47338e-017 1 -2.51179e-016
    outer loop
      vertex -13.3042 -0.49 76.7607
      vertex -12.8222 -0.49 74.7051
      vertex -13.9612 -0.49 76.4096
    endloop
  endfacet
  facet normal 4.76057e-017 1 -2.54196e-016
    outer loop
      vertex -10.8778 -0.49 74.7051
      vertex -11.1803 -0.49 74.8668
      vertex -10.3958 -0.49 76.7607
    endloop
  endfacet
  facet normal -3.68822e-018 1 -2.30435e-016
    outer loop
      vertex -12.8222 -0.49 74.7051
      vertex -14.537 -0.49 75.937
      vertex -13.9612 -0.49 76.4096
    endloop
  endfacet
  facet normal -6.31883e-017 1 -2.08304e-016
    outer loop
      vertex -11.1803 -0.49 74.8668
      vertex -11.5086 -0.49 74.9664
      vertex -11.1087 -0.49 76.977
    endloop
  endfacet
  facet normal -2.13361e-017 1 -2.16629e-016
    outer loop
      vertex -11.5086 -0.49 74.9664
      vertex -11.85 -0.49 75
      vertex -11.1087 -0.49 76.977
    endloop
  endfacet
  facet normal 2.13361e-017 1 -2.16629e-016
    outer loop
      vertex -11.85 -0.49 75
      vertex -12.1914 -0.49 74.9664
      vertex -12.5913 -0.49 76.977
    endloop
  endfacet
  facet normal 2.19654e-017 1 -2.10828e-016
    outer loop
      vertex -13.3051 -0.49 74.2222
      vertex -15.0096 -0.49 75.3612
      vertex -14.537 -0.49 75.937
    endloop
  endfacet
  facet normal 6.31883e-017 1 -2.08304e-016
    outer loop
      vertex -12.5197 -0.49 74.8668
      vertex -12.5913 -0.49 76.977
      vertex -12.1914 -0.49 74.9664
    endloop
  endfacet
  facet normal -4.76057e-017 1 -2.54196e-016
    outer loop
      vertex -12.5197 -0.49 74.8668
      vertex -12.8222 -0.49 74.7051
      vertex -13.3042 -0.49 76.7607
    endloop
  endfacet
  facet normal -1.14022e-017 1 -2.41172e-016
    outer loop
      vertex -12.8222 -0.49 74.7051
      vertex -13.0874 -0.49 74.4874
      vertex -14.537 -0.49 75.937
    endloop
  endfacet
  facet normal -1.77866e-017 1 -2.2822e-016
    outer loop
      vertex -13.5664 -0.49 73.5914
      vertex -15.577 -0.49 73.9913
      vertex -15.3607 -0.49 74.7042
    endloop
  endfacet
  facet normal 1.12281e-017 1 -2.18541e-016
    outer loop
      vertex -13.3051 -0.49 74.2222
      vertex -14.537 -0.49 75.937
      vertex -13.0874 -0.49 74.4874
    endloop
  endfacet
  facet normal 9.76795e-018 1 -1.88698e-016
    outer loop
      vertex -13.4668 -0.49 73.9197
      vertex -15.3607 -0.49 74.7042
      vertex -13.3051 -0.49 74.2222
    endloop
  endfacet
  facet normal 0 1 -1.62595e-016
    outer loop
      vertex -15.65 -0.49 73.25
      vertex -13.5664 -0.49 73.5914
      vertex -13.6 -0.49 73.25
    endloop
  endfacet
  facet normal 0 1 -2.24637e-016
    outer loop
      vertex -15.65 -0.49 73.25
      vertex -13.6 -0.49 73.25
      vertex -15.577 -0.49 72.5087
    endloop
  endfacet
  facet normal -0.77301 0 0.634393
    outer loop
      vertex -9.16299 -0.49 70.563
      vertex -8.69042 -0.49 71.1388
      vertex -8.69042 2 71.1388
    endloop
  endfacet
  facet normal -0.77301 0 0.634393
    outer loop
      vertex -9.16299 2 70.563
      vertex -9.16299 -0.49 70.563
      vertex -8.69042 2 71.1388
    endloop
  endfacet
  facet normal -0.95694 0 -0.290285
    outer loop
      vertex -8.12302 -0.49 73.9913
      vertex -8.33926 2 74.7042
      vertex -8.12302 2 73.9913
    endloop
  endfacet
  facet normal -0.95694 0 -0.290285
    outer loop
      vertex -8.12302 -0.49 73.9913
      vertex -8.33926 -0.49 74.7042
      vertex -8.33926 2 74.7042
    endloop
  endfacet
  facet normal -0.634393 0 -0.77301
    outer loop
      vertex -9.73883 -0.49 76.4096
      vertex -9.73883 2 76.4096
      vertex -9.16299 2 75.937
    endloop
  endfacet
  facet normal -0.634393 0 -0.77301
    outer loop
      vertex -9.16299 -0.49 75.937
      vertex -9.73883 -0.49 76.4096
      vertex -9.16299 2 75.937
    endloop
  endfacet
  facet normal -0.0980171 0 -0.995185
    outer loop
      vertex -11.85 -0.49 77.05
      vertex -11.85 2 77.05
      vertex -11.1087 2 76.977
    endloop
  endfacet
  facet normal -0.0980171 0 -0.995185
    outer loop
      vertex -11.1087 -0.49 76.977
      vertex -11.85 -0.49 77.05
      vertex -11.1087 2 76.977
    endloop
  endfacet
  facet normal 0.995185 0 -0.0980171
    outer loop
      vertex -15.65 -0.49 73.25
      vertex -15.65 2 73.25
      vertex -15.577 2 73.9913
    endloop
  endfacet
  facet normal 0.995185 -5.59401e-016 -0.0980171
    outer loop
      vertex -15.577 -0.49 73.9913
      vertex -15.65 -0.49 73.25
      vertex -15.577 2 73.9913
    endloop
  endfacet
  facet normal -0.471397 0 0.881921
    outer loop
      vertex -10.3958 2 69.7393
      vertex -9.73883 -0.49 70.0904
      vertex -9.73883 2 70.0904
    endloop
  endfacet
  facet normal -0.471397 0 0.881921
    outer loop
      vertex -10.3958 2 69.7393
      vertex -10.3958 -0.49 69.7393
      vertex -9.73883 -0.49 70.0904
    endloop
  endfacet
  facet normal 0.0980171 0 0.995185
    outer loop
      vertex -12.5913 -0.49 69.523
      vertex -11.85 -0.49 69.45
      vertex -11.85 2 69.45
    endloop
  endfacet
  facet normal 0.0980171 0 0.995185
    outer loop
      vertex -12.5913 2 69.523
      vertex -12.5913 -0.49 69.523
      vertex -11.85 2 69.45
    endloop
  endfacet
  facet normal -0.0980171 0 0.995185
    outer loop
      vertex -11.85 2 69.45
      vertex -11.1087 -0.49 69.523
      vertex -11.1087 2 69.523
    endloop
  endfacet
  facet normal -0.0980171 0 0.995185
    outer loop
      vertex -11.85 2 69.45
      vertex -11.85 -0.49 69.45
      vertex -11.1087 -0.49 69.523
    endloop
  endfacet
  facet normal 0.634393 0 0.77301
    outer loop
      vertex -14.537 -0.49 70.563
      vertex -13.9612 -0.49 70.0904
      vertex -13.9612 2 70.0904
    endloop
  endfacet
  facet normal 0.634393 0 0.77301
    outer loop
      vertex -14.537 2 70.563
      vertex -14.537 -0.49 70.563
      vertex -13.9612 2 70.0904
    endloop
  endfacet
  facet normal 0.77301 0 0.634393
    outer loop
      vertex -15.0096 2 71.1388
      vertex -14.537 -0.49 70.563
      vertex -14.537 2 70.563
    endloop
  endfacet
  facet normal 0.77301 0 0.634393
    outer loop
      vertex -15.0096 2 71.1388
      vertex -15.0096 -0.49 71.1388
      vertex -14.537 -0.49 70.563
    endloop
  endfacet
  facet normal 0.881921 0 0.471397
    outer loop
      vertex -15.3607 2 71.7958
      vertex -15.0096 -0.49 71.1388
      vertex -15.0096 2 71.1388
    endloop
  endfacet
  facet normal 0.881921 0 0.471397
    outer loop
      vertex -15.3607 2 71.7958
      vertex -15.3607 -0.49 71.7958
      vertex -15.0096 -0.49 71.1388
    endloop
  endfacet
  facet normal 0.95694 0 0.290285
    outer loop
      vertex -15.577 2 72.5087
      vertex -15.3607 -0.49 71.7958
      vertex -15.3607 2 71.7958
    endloop
  endfacet
  facet normal 0.95694 0 0.290285
    outer loop
      vertex -15.577 2 72.5087
      vertex -15.577 -0.49 72.5087
      vertex -15.3607 -0.49 71.7958
    endloop
  endfacet
  facet normal -0.77301 0 -0.634393
    outer loop
      vertex -8.69042 -0.49 75.3612
      vertex -9.16299 2 75.937
      vertex -8.69042 2 75.3612
    endloop
  endfacet
  facet normal -0.77301 0 -0.634393
    outer loop
      vertex -8.69042 -0.49 75.3612
      vertex -9.16299 -0.49 75.937
      vertex -9.16299 2 75.937
    endloop
  endfacet
  facet normal -0.881921 0 0.471397
    outer loop
      vertex -8.69042 -0.49 71.1388
      vertex -8.33926 -0.49 71.7958
      vertex -8.33926 2 71.7958
    endloop
  endfacet
  facet normal -0.881921 0 0.471397
    outer loop
      vertex -8.69042 2 71.1388
      vertex -8.69042 -0.49 71.1388
      vertex -8.33926 2 71.7958
    endloop
  endfacet
  facet normal -0.471397 0 -0.881921
    outer loop
      vertex -10.3958 -0.49 76.7607
      vertex -10.3958 2 76.7607
      vertex -9.73883 2 76.4096
    endloop
  endfacet
  facet normal -0.471397 0 -0.881921
    outer loop
      vertex -9.73883 -0.49 76.4096
      vertex -10.3958 -0.49 76.7607
      vertex -9.73883 2 76.4096
    endloop
  endfacet
  facet normal -0.290285 0 -0.95694
    outer loop
      vertex -11.1087 -0.49 76.977
      vertex -11.1087 2 76.977
      vertex -10.3958 2 76.7607
    endloop
  endfacet
  facet normal -0.290285 0 -0.95694
    outer loop
      vertex -10.3958 -0.49 76.7607
      vertex -11.1087 -0.49 76.977
      vertex -10.3958 2 76.7607
    endloop
  endfacet
  facet normal 0.471397 0 -0.881921
    outer loop
      vertex -13.3042 -0.49 76.7607
      vertex -13.9612 2 76.4096
      vertex -13.3042 2 76.7607
    endloop
  endfacet
  facet normal 0.471397 0 -0.881921
    outer loop
      vertex -13.3042 -0.49 76.7607
      vertex -13.9612 -0.49 76.4096
      vertex -13.9612 2 76.4096
    endloop
  endfacet
  facet normal 0.881921 0 -0.471397
    outer loop
      vertex -15.3607 -0.49 74.7042
      vertex -15.3607 2 74.7042
      vertex -15.0096 2 75.3612
    endloop
  endfacet
  facet normal 0.881921 0 -0.471397
    outer loop
      vertex -15.0096 -0.49 75.3612
      vertex -15.3607 -0.49 74.7042
      vertex -15.0096 2 75.3612
    endloop
  endfacet
  facet normal 0.77301 0 -0.634393
    outer loop
      vertex -15.0096 -0.49 75.3612
      vertex -15.0096 2 75.3612
      vertex -14.537 2 75.937
    endloop
  endfacet
  facet normal 0.77301 0 -0.634393
    outer loop
      vertex -14.537 -0.49 75.937
      vertex -15.0096 -0.49 75.3612
      vertex -14.537 2 75.937
    endloop
  endfacet
  facet normal 0.95694 -1.6567e-015 -0.290285
    outer loop
      vertex -15.577 -0.49 73.9913
      vertex -15.577 2 73.9913
      vertex -15.3607 2 74.7042
    endloop
  endfacet
  facet normal 0.95694 0 -0.290285
    outer loop
      vertex -15.3607 -0.49 74.7042
      vertex -15.577 -0.49 73.9913
      vertex -15.3607 2 74.7042
    endloop
  endfacet
  facet normal -0.881921 0 -0.471397
    outer loop
      vertex -8.33926 -0.49 74.7042
      vertex -8.69042 2 75.3612
      vertex -8.33926 2 74.7042
    endloop
  endfacet
  facet normal -0.881921 0 -0.471397
    outer loop
      vertex -8.33926 -0.49 74.7042
      vertex -8.69042 -0.49 75.3612
      vertex -8.69042 2 75.3612
    endloop
  endfacet
  facet normal -0.95694 0 0.290285
    outer loop
      vertex -8.33926 -0.49 71.7958
      vertex -8.12302 -0.49 72.5087
      vertex -8.12302 2 72.5087
    endloop
  endfacet
  facet normal -0.95694 0 0.290285
    outer loop
      vertex -8.33926 2 71.7958
      vertex -8.33926 -0.49 71.7958
      vertex -8.12302 2 72.5087
    endloop
  endfacet
  facet normal 0.290285 0 -0.95694
    outer loop
      vertex -12.5913 -0.49 76.977
      vertex -13.3042 2 76.7607
      vertex -12.5913 2 76.977
    endloop
  endfacet
  facet normal 0.290285 0 -0.95694
    outer loop
      vertex -12.5913 -0.49 76.977
      vertex -13.3042 -0.49 76.7607
      vertex -13.3042 2 76.7607
    endloop
  endfacet
  facet normal 0.0980171 0 -0.995185
    outer loop
      vertex -11.85 -0.49 77.05
      vertex -12.5913 2 76.977
      vertex -11.85 2 77.05
    endloop
  endfacet
  facet normal 0.0980171 0 -0.995185
    outer loop
      vertex -11.85 -0.49 77.05
      vertex -12.5913 -0.49 76.977
      vertex -12.5913 2 76.977
    endloop
  endfacet
  facet normal -0.634393 0 0.77301
    outer loop
      vertex -9.73883 2 70.0904
      vertex -9.16299 -0.49 70.563
      vertex -9.16299 2 70.563
    endloop
  endfacet
  facet normal -0.634393 0 0.77301
    outer loop
      vertex -9.73883 2 70.0904
      vertex -9.73883 -0.49 70.0904
      vertex -9.16299 -0.49 70.563
    endloop
  endfacet
  facet normal 0.290285 0 0.95694
    outer loop
      vertex -13.3042 -0.49 69.7393
      vertex -12.5913 -0.49 69.523
      vertex -12.5913 2 69.523
    endloop
  endfacet
  facet normal 0.290285 0 0.95694
    outer loop
      vertex -13.3042 2 69.7393
      vertex -13.3042 -0.49 69.7393
      vertex -12.5913 2 69.523
    endloop
  endfacet
  facet normal 0.471397 0 0.881921
    outer loop
      vertex -13.9612 -0.49 70.0904
      vertex -13.3042 -0.49 69.7393
      vertex -13.3042 2 69.7393
    endloop
  endfacet
  facet normal 0.471397 0 0.881921
    outer loop
      vertex -13.9612 2 70.0904
      vertex -13.9612 -0.49 70.0904
      vertex -13.3042 2 69.7393
    endloop
  endfacet
  facet normal -0.995185 0 -0.0980171
    outer loop
      vertex -8.05 -0.49 73.25
      vertex -8.12302 2 73.9913
      vertex -8.05 2 73.25
    endloop
  endfacet
  facet normal -0.995185 0 -0.0980171
    outer loop
      vertex -8.05 -0.49 73.25
      vertex -8.12302 -0.49 73.9913
      vertex -8.12302 2 73.9913
    endloop
  endfacet
  facet normal 0.995185 0 0.0980171
    outer loop
      vertex -13.6 -0.49 73.25
      vertex -13.5664 -2 72.9086
      vertex -13.5664 -0.49 72.9086
    endloop
  endfacet
  facet normal 0.995185 0 0.0980171
    outer loop
      vertex -13.6 -0.49 73.25
      vertex -13.6 -2 73.25
      vertex -13.5664 -2 72.9086
    endloop
  endfacet
  facet normal 0.634393 0 -0.77301
    outer loop
      vertex -12.8222 -2 74.7051
      vertex -13.0874 -0.49 74.4874
      vertex -12.8222 -0.49 74.7051
    endloop
  endfacet
  facet normal 0.634393 0 -0.77301
    outer loop
      vertex -12.8222 -2 74.7051
      vertex -13.0874 -2 74.4874
      vertex -13.0874 -0.49 74.4874
    endloop
  endfacet
  facet normal -0.290285 0 0.95694
    outer loop
      vertex -11.5086 -0.49 71.5336
      vertex -11.1803 -2 71.6332
      vertex -11.1803 -0.49 71.6332
    endloop
  endfacet
  facet normal -0.290285 0 0.95694
    outer loop
      vertex -11.5086 -0.49 71.5336
      vertex -11.5086 -2 71.5336
      vertex -11.1803 -2 71.6332
    endloop
  endfacet
  facet normal 0.471397 0 0.881921
    outer loop
      vertex -12.8222 -2 71.7949
      vertex -12.5197 -2 71.6332
      vertex -12.5197 -0.49 71.6332
    endloop
  endfacet
  facet normal 0.471397 0 0.881921
    outer loop
      vertex -12.8222 -0.49 71.7949
      vertex -12.8222 -2 71.7949
      vertex -12.5197 -0.49 71.6332
    endloop
  endfacet
  facet normal 0.0980171 0 0.995185
    outer loop
      vertex -12.1914 -2 71.5336
      vertex -11.85 -2 71.5
      vertex -11.85 -0.49 71.5
    endloop
  endfacet
  facet normal 0.0980171 0 0.995185
    outer loop
      vertex -12.1914 -0.49 71.5336
      vertex -12.1914 -2 71.5336
      vertex -11.85 -0.49 71.5
    endloop
  endfacet
  facet normal -0.995185 0 0.0980171
    outer loop
      vertex -10.1336 -2 72.9086
      vertex -10.1 -2 73.25
      vertex -10.1 -0.49 73.25
    endloop
  endfacet
  facet normal -0.995185 0 0.0980171
    outer loop
      vertex -10.1336 -0.49 72.9086
      vertex -10.1336 -2 72.9086
      vertex -10.1 -0.49 73.25
    endloop
  endfacet
  facet normal -0.77301 0 0.634393
    outer loop
      vertex -10.6126 -2 72.0126
      vertex -10.3949 -2 72.2778
      vertex -10.3949 -0.49 72.2778
    endloop
  endfacet
  facet normal -0.77301 0 0.634393
    outer loop
      vertex -10.6126 -0.49 72.0126
      vertex -10.6126 -2 72.0126
      vertex -10.3949 -0.49 72.2778
    endloop
  endfacet
  facet normal -0.0980171 0 0.995185
    outer loop
      vertex -11.85 -0.49 71.5
      vertex -11.5086 -2 71.5336
      vertex -11.5086 -0.49 71.5336
    endloop
  endfacet
  facet normal -0.0980171 0 0.995185
    outer loop
      vertex -11.85 -0.49 71.5
      vertex -11.85 -2 71.5
      vertex -11.5086 -2 71.5336
    endloop
  endfacet
  facet normal -0.95694 0 -0.290285
    outer loop
      vertex -10.1336 -2 73.5914
      vertex -10.2332 -0.49 73.9197
      vertex -10.1336 -0.49 73.5914
    endloop
  endfacet
  facet normal -0.95694 0 -0.290285
    outer loop
      vertex -10.1336 -2 73.5914
      vertex -10.2332 -2 73.9197
      vertex -10.2332 -0.49 73.9197
    endloop
  endfacet
  facet normal -0.95694 0 0.290285
    outer loop
      vertex -10.2332 -2 72.5803
      vertex -10.1336 -2 72.9086
      vertex -10.1336 -0.49 72.9086
    endloop
  endfacet
  facet normal -0.95694 0 0.290285
    outer loop
      vertex -10.2332 -0.49 72.5803
      vertex -10.2332 -2 72.5803
      vertex -10.1336 -0.49 72.9086
    endloop
  endfacet
  facet normal -0.634393 0 -0.77301
    outer loop
      vertex -10.8778 -2 74.7051
      vertex -10.8778 -0.49 74.7051
      vertex -10.6126 -0.49 74.4874
    endloop
  endfacet
  facet normal -0.634393 0 -0.77301
    outer loop
      vertex -10.6126 -2 74.4874
      vertex -10.8778 -2 74.7051
      vertex -10.6126 -0.49 74.4874
    endloop
  endfacet
  facet normal 0.995185 0 -0.0980171
    outer loop
      vertex -13.6 -2 73.25
      vertex -13.6 -0.49 73.25
      vertex -13.5664 -0.49 73.5914
    endloop
  endfacet
  facet normal 0.995185 0 -0.0980171
    outer loop
      vertex -13.5664 -2 73.5914
      vertex -13.6 -2 73.25
      vertex -13.5664 -0.49 73.5914
    endloop
  endfacet
  facet normal 0.290285 0 0.95694
    outer loop
      vertex -12.5197 -2 71.6332
      vertex -12.1914 -2 71.5336
      vertex -12.1914 -0.49 71.5336
    endloop
  endfacet
  facet normal 0.290285 0 0.95694
    outer loop
      vertex -12.5197 -0.49 71.6332
      vertex -12.5197 -2 71.6332
      vertex -12.1914 -0.49 71.5336
    endloop
  endfacet
  facet normal 0.634393 0 0.77301
    outer loop
      vertex -13.0874 -2 72.0126
      vertex -12.8222 -2 71.7949
      vertex -12.8222 -0.49 71.7949
    endloop
  endfacet
  facet normal 0.634393 0 0.77301
    outer loop
      vertex -13.0874 -0.49 72.0126
      vertex -13.0874 -2 72.0126
      vertex -12.8222 -0.49 71.7949
    endloop
  endfacet
  facet normal 0.881921 0 0.471397
    outer loop
      vertex -13.4668 -0.49 72.5803
      vertex -13.3051 -2 72.2778
      vertex -13.3051 -0.49 72.2778
    endloop
  endfacet
  facet normal 0.881921 0 0.471397
    outer loop
      vertex -13.4668 -0.49 72.5803
      vertex -13.4668 -2 72.5803
      vertex -13.3051 -2 72.2778
    endloop
  endfacet
  facet normal 0.95694 0 0.290285
    outer loop
      vertex -13.5664 -0.49 72.9086
      vertex -13.4668 -2 72.5803
      vertex -13.4668 -0.49 72.5803
    endloop
  endfacet
  facet normal 0.95694 0 0.290285
    outer loop
      vertex -13.5664 -0.49 72.9086
      vertex -13.5664 -2 72.9086
      vertex -13.4668 -2 72.5803
    endloop
  endfacet
  facet normal -0.77301 0 -0.634393
    outer loop
      vertex -10.3949 -2 74.2222
      vertex -10.6126 -0.49 74.4874
      vertex -10.3949 -0.49 74.2222
    endloop
  endfacet
  facet normal -0.77301 0 -0.634393
    outer loop
      vertex -10.3949 -2 74.2222
      vertex -10.6126 -2 74.4874
      vertex -10.6126 -0.49 74.4874
    endloop
  endfacet
  facet normal -0.634393 0 0.77301
    outer loop
      vertex -10.8778 -0.49 71.7949
      vertex -10.6126 -2 72.0126
      vertex -10.6126 -0.49 72.0126
    endloop
  endfacet
  facet normal -0.634393 0 0.77301
    outer loop
      vertex -10.8778 -0.49 71.7949
      vertex -10.8778 -2 71.7949
      vertex -10.6126 -2 72.0126
    endloop
  endfacet
  facet normal -0.881921 0 0.471397
    outer loop
      vertex -10.3949 -2 72.2778
      vertex -10.2332 -2 72.5803
      vertex -10.2332 -0.49 72.5803
    endloop
  endfacet
  facet normal -0.881921 0 0.471397
    outer loop
      vertex -10.3949 -0.49 72.2778
      vertex -10.3949 -2 72.2778
      vertex -10.2332 -0.49 72.5803
    endloop
  endfacet
  facet normal -0.471397 0 -0.881921
    outer loop
      vertex -11.1803 -2 74.8668
      vertex -11.1803 -0.49 74.8668
      vertex -10.8778 -0.49 74.7051
    endloop
  endfacet
  facet normal -0.471397 0 -0.881921
    outer loop
      vertex -10.8778 -2 74.7051
      vertex -11.1803 -2 74.8668
      vertex -10.8778 -0.49 74.7051
    endloop
  endfacet
  facet normal -0.0980171 0 -0.995185
    outer loop
      vertex -11.85 -2 75
      vertex -11.85 -0.49 75
      vertex -11.5086 -0.49 74.9664
    endloop
  endfacet
  facet normal -0.0980171 0 -0.995185
    outer loop
      vertex -11.5086 -2 74.9664
      vertex -11.85 -2 75
      vertex -11.5086 -0.49 74.9664
    endloop
  endfacet
  facet normal 0.471397 0 -0.881921
    outer loop
      vertex -12.5197 -2 74.8668
      vertex -12.8222 -0.49 74.7051
      vertex -12.5197 -0.49 74.8668
    endloop
  endfacet
  facet normal 0.471397 0 -0.881921
    outer loop
      vertex -12.5197 -2 74.8668
      vertex -12.8222 -2 74.7051
      vertex -12.8222 -0.49 74.7051
    endloop
  endfacet
  facet normal 0.881921 0 -0.471397
    outer loop
      vertex -13.4668 -2 73.9197
      vertex -13.4668 -0.49 73.9197
      vertex -13.3051 -0.49 74.2222
    endloop
  endfacet
  facet normal 0.881921 0 -0.471397
    outer loop
      vertex -13.3051 -2 74.2222
      vertex -13.4668 -2 73.9197
      vertex -13.3051 -0.49 74.2222
    endloop
  endfacet
  facet normal 0.77301 0 -0.634393
    outer loop
      vertex -13.3051 -2 74.2222
      vertex -13.3051 -0.49 74.2222
      vertex -13.0874 -0.49 74.4874
    endloop
  endfacet
  facet normal 0.77301 0 -0.634393
    outer loop
      vertex -13.0874 -2 74.4874
      vertex -13.3051 -2 74.2222
      vertex -13.0874 -0.49 74.4874
    endloop
  endfacet
  facet normal 0.95694 0 -0.290285
    outer loop
      vertex -13.5664 -2 73.5914
      vertex -13.5664 -0.49 73.5914
      vertex -13.4668 -0.49 73.9197
    endloop
  endfacet
  facet normal 0.95694 0 -0.290285
    outer loop
      vertex -13.4668 -2 73.9197
      vertex -13.5664 -2 73.5914
      vertex -13.4668 -0.49 73.9197
    endloop
  endfacet
  facet normal 0.77301 0 0.634393
    outer loop
      vertex -13.3051 -0.49 72.2778
      vertex -13.0874 -2 72.0126
      vertex -13.0874 -0.49 72.0126
    endloop
  endfacet
  facet normal 0.77301 0 0.634393
    outer loop
      vertex -13.3051 -0.49 72.2778
      vertex -13.3051 -2 72.2778
      vertex -13.0874 -2 72.0126
    endloop
  endfacet
  facet normal -0.881921 0 -0.471397
    outer loop
      vertex -10.2332 -2 73.9197
      vertex -10.3949 -0.49 74.2222
      vertex -10.2332 -0.49 73.9197
    endloop
  endfacet
  facet normal -0.881921 0 -0.471397
    outer loop
      vertex -10.2332 -2 73.9197
      vertex -10.3949 -2 74.2222
      vertex -10.3949 -0.49 74.2222
    endloop
  endfacet
  facet normal -0.471397 0 0.881921
    outer loop
      vertex -11.1803 -0.49 71.6332
      vertex -10.8778 -2 71.7949
      vertex -10.8778 -0.49 71.7949
    endloop
  endfacet
  facet normal -0.471397 0 0.881921
    outer loop
      vertex -11.1803 -0.49 71.6332
      vertex -11.1803 -2 71.6332
      vertex -10.8778 -2 71.7949
    endloop
  endfacet
  facet normal -0.290285 0 -0.95694
    outer loop
      vertex -11.5086 -2 74.9664
      vertex -11.5086 -0.49 74.9664
      vertex -11.1803 -0.49 74.8668
    endloop
  endfacet
  facet normal -0.290285 0 -0.95694
    outer loop
      vertex -11.1803 -2 74.8668
      vertex -11.5086 -2 74.9664
      vertex -11.1803 -0.49 74.8668
    endloop
  endfacet
  facet normal 0.290285 0 -0.95694
    outer loop
      vertex -12.1914 -2 74.9664
      vertex -12.5197 -0.49 74.8668
      vertex -12.1914 -0.49 74.9664
    endloop
  endfacet
  facet normal 0.290285 0 -0.95694
    outer loop
      vertex -12.1914 -2 74.9664
      vertex -12.5197 -2 74.8668
      vertex -12.5197 -0.49 74.8668
    endloop
  endfacet
  facet normal 0.0980171 0 -0.995185
    outer loop
      vertex -11.85 -2 75
      vertex -12.1914 -0.49 74.9664
      vertex -11.85 -0.49 75
    endloop
  endfacet
  facet normal 0.0980171 0 -0.995185
    outer loop
      vertex -11.85 -2 75
      vertex -12.1914 -2 74.9664
      vertex -12.1914 -0.49 74.9664
    endloop
  endfacet
  facet normal -0.995185 0 -0.0980171
    outer loop
      vertex -10.1 -2 73.25
      vertex -10.1336 -0.49 73.5914
      vertex -10.1 -0.49 73.25
    endloop
  endfacet
  facet normal -0.995185 0 -0.0980171
    outer loop
      vertex -10.1 -2 73.25
      vertex -10.1336 -2 73.5914
      vertex -10.1336 -0.49 73.5914
    endloop
  endfacet
  facet normal -1 0 -0
    outer loop
      vertex -20 2 80
      vertex -20 2 10
      vertex -20 0 10
    endloop
  endfacet
  facet normal -1 -0 0
    outer loop
      vertex -20 2 80
      vertex -20 0 10
      vertex -20 -2 80
    endloop
  endfacet
  facet normal -1 0 0
    outer loop
      vertex -20 -2 80
      vertex -20 0 10
      vertex -20 -2 0
    endloop
  endfacet
  facet normal -1 0 -0
    outer loop
      vertex -20 0 10
      vertex -20 0 0
      vertex -20 -2 0
    endloop
  endfacet
  facet normal 0 -1 0
    outer loop
      vertex -13.5664 -2 72.9086
      vertex -13.6 -2 73.25
      vertex -20 -2 80
    endloop
  endfacet
  facet normal 0 -1 0
    outer loop
      vertex -13.6 -2 73.25
      vertex -13.5664 -2 73.5914
      vertex -20 -2 80
    endloop
  endfacet
  facet normal 0 -1 0
    outer loop
      vertex -13.5664 -2 73.5914
      vertex -13.4668 -2 73.9197
      vertex -20 -2 80
    endloop
  endfacet
  facet normal 0 -1 0
    outer loop
      vertex -13.4668 -2 73.9197
      vertex -13.3051 -2 74.2222
      vertex -20 -2 80
    endloop
  endfacet
  facet normal 0 -1 0
    outer loop
      vertex -13.3051 -2 74.2222
      vertex -13.0874 -2 74.4874
      vertex -20 -2 80
    endloop
  endfacet
  facet normal 0 -1 0
    outer loop
      vertex -13.0874 -2 74.4874
      vertex -12.8222 -2 74.7051
      vertex -20 -2 80
    endloop
  endfacet
  facet normal 0 -1 0
    outer loop
      vertex -12.8222 -2 74.7051
      vertex -12.5197 -2 74.8668
      vertex -20 -2 80
    endloop
  endfacet
  facet normal 0 -1 0
    outer loop
      vertex -11.5086 -2 74.9664
      vertex 2 -2 80
      vertex -20 -2 80
    endloop
  endfacet
  facet normal -0 -1 0
    outer loop
      vertex -12.1914 -2 74.9664
      vertex -20 -2 80
      vertex -12.5197 -2 74.8668
    endloop
  endfacet
  facet normal -0 -1 0
    outer loop
      vertex -11.85 -2 75
      vertex -20 -2 80
      vertex -12.1914 -2 74.9664
    endloop
  endfacet
  facet normal 0 -1 0
    outer loop
      vertex -11.5086 -2 74.9664
      vertex -20 -2 80
      vertex -11.85 -2 75
    endloop
  endfacet
  facet normal 0 -1 0
    outer loop
      vertex -11.1803 -2 74.8668
      vertex 2 -2 80
      vertex -11.5086 -2 74.9664
    endloop
  endfacet
  facet normal 0 -1 0
    outer loop
      vertex -10.8778 -2 74.7051
      vertex 2 -2 80
      vertex -11.1803 -2 74.8668
    endloop
  endfacet
  facet normal 0 -1 0
    outer loop
      vertex -10.6126 -2 74.4874
      vertex 2 -2 80
      vertex -10.8778 -2 74.7051
    endloop
  endfacet
  facet normal 0 -1 0
    outer loop
      vertex -10.3949 -2 74.2222
      vertex 2 -2 80
      vertex -10.6126 -2 74.4874
    endloop
  endfacet
  facet normal 0 -1 0
    outer loop
      vertex -10.2332 -2 73.9197
      vertex 2 -2 80
      vertex -10.3949 -2 74.2222
    endloop
  endfacet
  facet normal 0 -1 0
    outer loop
      vertex 2 -2 80
      vertex -10.1336 -2 73.5914
      vertex -10.1 -2 73.25
    endloop
  endfacet
  facet normal 0 -1 0
    outer loop
      vertex -10.1336 -2 73.5914
      vertex 2 -2 80
      vertex -10.2332 -2 73.9197
    endloop
  endfacet
  facet normal 0 -1 0
    outer loop
      vertex 2 -2 80
      vertex -10.1 -2 73.25
      vertex -10.1336 -2 72.9086
    endloop
  endfacet
  facet normal 0 -1 -0
    outer loop
      vertex -11.5086 -2 71.5336
      vertex -11.85 -2 71.5
      vertex -5.84141 -2 26.7164
    endloop
  endfacet
  facet normal 0 -1 -0
    outer loop
      vertex -10.1336 -2 72.9086
      vertex -10.2332 -2 72.5803
      vertex 2 -2 80
    endloop
  endfacet
  facet normal 0 -1 -0
    outer loop
      vertex -10.2332 -2 72.5803
      vertex -10.3949 -2 72.2778
      vertex 2 -2 80
    endloop
  endfacet
  facet normal 0 -1 -0
    outer loop
      vertex -10.3949 -2 72.2778
      vertex -10.6126 -2 72.0126
      vertex 2 -2 80
    endloop
  endfacet
  facet normal 0 -1 0
    outer loop
      vertex 2 -2 0
      vertex 2 -2 80
      vertex -3.78363 -2 25.3414
    endloop
  endfacet
  facet normal 0 -1 0
    outer loop
      vertex -4.8303 -2 26.6168
      vertex -10.6126 -2 72.0126
      vertex -10.8778 -2 71.7949
    endloop
  endfacet
  facet normal 0 -1 0
    outer loop
      vertex -5.15859 -2 26.7164
      vertex -10.8778 -2 71.7949
      vertex -11.1803 -2 71.6332
    endloop
  endfacet
  facet normal -0 -1 -0
    outer loop
      vertex -11.85 -2 71.5
      vertex -12.1914 -2 71.5336
      vertex -6.1697 -2 26.6168
    endloop
  endfacet
  facet normal -0 -1 -0
    outer loop
      vertex -12.1914 -2 71.5336
      vertex -12.5197 -2 71.6332
      vertex -6.47225 -2 26.4551
    endloop
  endfacet
  facet normal -0 -1 -0
    outer loop
      vertex -12.5197 -2 71.6332
      vertex -12.8222 -2 71.7949
      vertex -6.73744 -2 26.2374
    endloop
  endfacet
  facet normal -0 -1 -0
    outer loop
      vertex -13.5664 -2 72.9086
      vertex -20 -2 80
      vertex -13.4668 -2 72.5803
    endloop
  endfacet
  facet normal -0 -1 -0
    outer loop
      vertex -12.8222 -2 71.7949
      vertex -13.0874 -2 72.0126
      vertex -6.95507 -2 25.9722
    endloop
  endfacet
  facet normal -0 -1 -0
    outer loop
      vertex -13.3051 -2 72.2778
      vertex -20 -2 80
      vertex -7.11679 -2 25.6697
    endloop
  endfacet
  facet normal 0 -1 0
    outer loop
      vertex -13.3051 -2 72.2778
      vertex -7.11679 -2 25.6697
      vertex -13.0874 -2 72.0126
    endloop
  endfacet
  facet normal -0 -1 -0
    outer loop
      vertex -13.4668 -2 72.5803
      vertex -20 -2 80
      vertex -13.3051 -2 72.2778
    endloop
  endfacet
  facet normal -0 -1 0
    outer loop
      vertex -7.21637 -2 25.3414
      vertex -20 -2 80
      vertex -20 -2 0
    endloop
  endfacet
  facet normal 0 -1 0
    outer loop
      vertex -11.5086 -2 71.5336
      vertex -5.5 -2 26.75
      vertex -11.1803 -2 71.6332
    endloop
  endfacet
  facet normal 0 -1 -0
    outer loop
      vertex -7.25 -2 25
      vertex -20 -2 0
      vertex -7.21637 -2 24.6586
    endloop
  endfacet
  facet normal -0 -1 0
    outer loop
      vertex -7.25 -2 25
      vertex -7.21637 -2 25.3414
      vertex -20 -2 0
    endloop
  endfacet
  facet normal 0 -1 0
    outer loop
      vertex -4.52775 -2 26.4551
      vertex 2 -2 80
      vertex -10.6126 -2 72.0126
    endloop
  endfacet
  facet normal -0 -1 0
    outer loop
      vertex -7.11679 -2 25.6697
      vertex -20 -2 80
      vertex -7.21637 -2 25.3414
    endloop
  endfacet
  facet normal -0 -1 0
    outer loop
      vertex -6.95507 -2 25.9722
      vertex -13.0874 -2 72.0126
      vertex -7.11679 -2 25.6697
    endloop
  endfacet
  facet normal -0 -1 0
    outer loop
      vertex -6.73744 -2 26.2374
      vertex -12.8222 -2 71.7949
      vertex -6.95507 -2 25.9722
    endloop
  endfacet
  facet normal -0 -1 0
    outer loop
      vertex -6.47225 -2 26.4551
      vertex -12.5197 -2 71.6332
      vertex -6.73744 -2 26.2374
    endloop
  endfacet
  facet normal -0 -1 0
    outer loop
      vertex -6.1697 -2 26.6168
      vertex -12.1914 -2 71.5336
      vertex -6.47225 -2 26.4551
    endloop
  endfacet
  facet normal -0 -1 0
    outer loop
      vertex -5.84141 -2 26.7164
      vertex -11.85 -2 71.5
      vertex -6.1697 -2 26.6168
    endloop
  endfacet
  facet normal -0 -1 0
    outer loop
      vertex -5.5 -2 26.75
      vertex -11.5086 -2 71.5336
      vertex -5.84141 -2 26.7164
    endloop
  endfacet
  facet normal 0 -1 0
    outer loop
      vertex -5.15859 -2 26.7164
      vertex -11.1803 -2 71.6332
      vertex -5.5 -2 26.75
    endloop
  endfacet
  facet normal 0 -1 0
    outer loop
      vertex -4.8303 -2 26.6168
      vertex -10.8778 -2 71.7949
      vertex -5.15859 -2 26.7164
    endloop
  endfacet
  facet normal 0 -1 0
    outer loop
      vertex -4.52775 -2 26.4551
      vertex -10.6126 -2 72.0126
      vertex -4.8303 -2 26.6168
    endloop
  endfacet
  facet normal 0 -1 0
    outer loop
      vertex -4.26256 -2 26.2374
      vertex 2 -2 80
      vertex -4.52775 -2 26.4551
    endloop
  endfacet
  facet normal 0 -1 0
    outer loop
      vertex -4.04493 -2 25.9722
      vertex 2 -2 80
      vertex -4.26256 -2 26.2374
    endloop
  endfacet
  facet normal 0 -1 0
    outer loop
      vertex -3.88321 -2 25.6697
      vertex 2 -2 80
      vertex -4.04493 -2 25.9722
    endloop
  endfacet
  facet normal 0 -1 0
    outer loop
      vertex 2 -2 0
      vertex -3.78363 -2 25.3414
      vertex -3.75 -2 25
    endloop
  endfacet
  facet normal 0 -1 0
    outer loop
      vertex -3.78363 -2 25.3414
      vertex 2 -2 80
      vertex -3.88321 -2 25.6697
    endloop
  endfacet
  facet normal 0 -1 0
    outer loop
      vertex 2 -2 0
      vertex -3.75 -2 25
      vertex -3.78363 -2 24.6586
    endloop
  endfacet
  facet normal 0 -1 0
    outer loop
      vertex 2 -2 0
      vertex -3.78363 -2 24.6586
      vertex -3.88321 -2 24.3303
    endloop
  endfacet
  facet normal 0 -1 0
    outer loop
      vertex 2 -2 0
      vertex -3.88321 -2 24.3303
      vertex -4.04493 -2 24.0278
    endloop
  endfacet
  facet normal 0 -1 0
    outer loop
      vertex 2 -2 0
      vertex -4.04493 -2 24.0278
      vertex -4.26256 -2 23.7626
    endloop
  endfacet
  facet normal 0 -1 0
    outer loop
      vertex 2 -2 0
      vertex -5.84141 -2 23.2836
      vertex -20 -2 0
    endloop
  endfacet
  facet normal 0 -1 -0
    outer loop
      vertex -4.26256 -2 23.7626
      vertex -4.52775 -2 23.5449
      vertex 2 -2 0
    endloop
  endfacet
  facet normal 0 -1 -0
    outer loop
      vertex -4.52775 -2 23.5449
      vertex -4.8303 -2 23.3832
      vertex 2 -2 0
    endloop
  endfacet
  facet normal 0 -1 -0
    outer loop
      vertex -4.8303 -2 23.3832
      vertex -5.15859 -2 23.2836
      vertex 2 -2 0
    endloop
  endfacet
  facet normal 0 -1 -0
    outer loop
      vertex -5.15859 -2 23.2836
      vertex -5.5 -2 23.25
      vertex 2 -2 0
    endloop
  endfacet
  facet normal -0 -1 -0
    outer loop
      vertex -5.5 -2 23.25
      vertex -5.84141 -2 23.2836
      vertex 2 -2 0
    endloop
  endfacet
  facet normal -0 -1 0
    outer loop
      vertex -5.84141 -2 23.2836
      vertex -6.1697 -2 23.3832
      vertex -20 -2 0
    endloop
  endfacet
  facet normal -0 -1 0
    outer loop
      vertex -6.1697 -2 23.3832
      vertex -6.47225 -2 23.5449
      vertex -20 -2 0
    endloop
  endfacet
  facet normal -0 -1 0
    outer loop
      vertex -6.47225 -2 23.5449
      vertex -6.73744 -2 23.7626
      vertex -20 -2 0
    endloop
  endfacet
  facet normal -0 -1 0
    outer loop
      vertex -6.73744 -2 23.7626
      vertex -6.95507 -2 24.0278
      vertex -20 -2 0
    endloop
  endfacet
  facet normal -0 -1 0
    outer loop
      vertex -6.95507 -2 24.0278
      vertex -7.11679 -2 24.3303
      vertex -20 -2 0
    endloop
  endfacet
  facet normal -0 -1 0
    outer loop
      vertex -7.11679 -2 24.3303
      vertex -7.21637 -2 24.6586
      vertex -20 -2 0
    endloop
  endfacet
  facet normal 0 0 1
    outer loop
      vertex 2 -2 80
      vertex -20 2 80
      vertex -20 -2 80
    endloop
  endfacet
  facet normal 0 -0 1
    outer loop
      vertex 2 -2 80
      vertex 2 2 80
      vertex -20 2 80
    endloop
  endfacet
endsolid OpenSCAD_Model
